<?xml version="1.0" standalone="no"?>
<!DOCTYPE svg PUBLIC "-//W3C//DTD SVG 20010904//EN"
 "http://www.w3.org/TR/2001/REC-SVG-20010904/DTD/svg10.dtd">
<svg version="1.0" xmlns="http://www.w3.org/2000/svg"
 width="500.000000pt" height="500.000000pt" viewBox="0 0 500.000000 500.000000"
 preserveAspectRatio="xMidYMid meet">
<metadata>
Created by potrace 1.14, written by Peter Selinger 2001-2017
</metadata>
<g transform="translate(0.000000,500.000000) scale(0.100000,-0.100000)"
fill="#000000" stroke="none">
<path d="M2 4968 c3 -18 9 -42 13 -52 6 -14 5 -17 -3 -12 -9 5 -12 -576 -12
-2448 l0 -2456 2500 0 2500 0 0 1690 c0 1120 -3 1690 -10 1690 -5 0 -10 7 -10
16 0 8 4 12 10 9 7 -4 10 72 9 222 0 146 -4 220 -9 206 -5 -13 -14 -23 -19
-23 -12 0 6 57 20 66 5 3 9 229 9 519 0 400 -3 514 -13 518 -9 4 -9 7 1 18 6
7 12 26 12 41 l0 28 -274 0 -274 0 -12 -30 c-7 -16 -16 -27 -21 -24 -5 3 -5
13 1 24 5 10 10 21 10 24 0 3 -119 6 -265 6 l-265 0 -28 -30 c-29 -32 -81 -53
-101 -40 -8 4 4 10 27 14 39 6 72 27 72 47 0 18 -28 9 -33 -11 -3 -14 -14 -20
-31 -20 -36 0 -41 3 -40 23 1 15 -11 17 -107 17 -76 0 -109 -4 -113 -12 -5
-10 -7 -10 -12 0 -10 21 -44 14 -54 -12 -13 -34 -70 -66 -116 -65 l-39 1 35 7
c51 11 97 37 103 61 4 15 0 20 -15 20 -11 0 -16 -4 -13 -11 10 -15 -30 -49
-59 -49 -20 0 -23 4 -19 21 4 12 0 25 -8 30 -18 11 -967 10 -994 -1 -18 -8
-17 -9 8 -9 29 -1 36 -15 12 -25 -8 -3 -15 -14 -15 -24 0 -14 -8 -19 -37 -20
-31 -1 -42 3 -57 25 -15 21 -17 30 -8 44 11 18 2 19 -233 19 l-245 0 30 -29
c17 -15 30 -34 30 -41 0 -7 -9 -1 -21 14 -38 49 -66 56 -219 56 -77 0 -140 -3
-140 -7 0 -5 7 -17 15 -27 8 -11 15 -31 14 -45 -1 -23 -2 -23 -7 -6 -4 11 -16
35 -27 52 l-19 33 -392 0 c-301 0 -394 -3 -397 -13 -4 -9 -7 -9 -18 1 -7 6
-32 12 -56 12 l-43 0 0 -41 c0 -24 -4 -38 -10 -34 -5 3 -9 21 -7 38 l2 32
-259 3 -258 2 4 -32z m1066 0 c11 -13 23 -36 27 -53 l6 -30 -17 30 c-9 17 -26
40 -37 53 -11 12 -16 22 -10 22 5 0 19 -10 31 -22z m2891 15 c0 -5 -4 -17 -9
-28 -8 -18 -9 -17 -9 8 -1 15 4 27 9 27 6 0 10 -3 9 -7z m-3382 -25 c-3 -8 -6
-5 -6 6 -1 11 2 17 5 13 3 -3 4 -12 1 -19z m3613 12 c0 -5 -4 -10 -9 -10 -6 0
-13 5 -16 10 -3 6 1 10 9 10 9 0 16 -4 16 -10z m-3947 -30 c6 -23 0 -30 -25
-30 -26 0 -22 -18 5 -23 16 -3 13 -5 -10 -6 -32 -1 -33 0 -33 38 0 23 5 41 13
44 21 7 45 -4 50 -23z m4012 -10 c0 -7 -12 -15 -28 -17 -32 -4 -46 19 -27 42
11 13 16 14 34 2 12 -8 21 -20 21 -27z m-2002 -6 c26 -29 40 -36 72 -37 22 -1
51 2 65 6 l25 8 -25 -15 c-51 -31 -132 -9 -162 45 -23 39 -15 37 25 -7z m432
31 c-25 -9 -107 -12 -94 -4 8 5 34 8 59 8 25 0 41 -2 35 -4z m1635 -7 c-1 -28
-53 -68 -87 -68 -11 1 -5 7 14 15 18 8 38 25 45 40 12 26 28 34 28 13z m-4168
-40 l23 -33 -25 16 c-14 9 -26 24 -28 33 -5 24 4 19 30 -16z m2813 22 c3 -5 1
-10 -4 -10 -6 0 -11 5 -11 10 0 6 2 10 4 10 3 0 8 -4 11 -10z m80 -10 c9 -15
-14 -40 -36 -40 -12 0 -16 5 -13 15 4 8 1 15 -5 15 -6 0 -11 5 -11 10 0 13 57
13 65 0z m57 -12 c-7 -7 -12 -8 -12 -2 0 6 3 14 7 17 3 4 9 5 12 2 2 -3 -1
-11 -7 -17z m-2473 -4 c39 -23 77 -94 51 -94 -5 0 -10 6 -10 14 0 20 -49 76
-74 86 -12 5 -15 9 -8 9 8 1 26 -6 41 -15z m1404 9 c-7 -2 -19 -2 -25 0 -7 3
-2 5 12 5 14 0 19 -2 13 -5z m88 -9 c17 -8 28 -18 25 -21 -3 -3 -12 0 -21 7
-8 7 -30 16 -48 20 -24 6 -26 8 -9 9 13 1 37 -6 53 -15z m1724 6 c-3 -5 -11
-10 -16 -10 -6 0 -7 5 -4 10 3 6 11 10 16 10 6 0 7 -4 4 -10z m65 -4 c0 -3 -4
-8 -10 -11 -5 -3 -10 -1 -10 4 0 6 5 11 10 11 6 0 10 -2 10 -4z m-2606 -36
c16 0 17 -3 8 -12 -7 -7 -12 -20 -12 -30 0 -10 -7 -18 -16 -18 -25 0 -54 20
-54 37 0 21 32 45 45 32 5 -5 18 -9 29 -9z m3626 0 c-14 -10 -35 -31 -47 -47
-13 -15 -23 -22 -23 -14 0 17 64 81 82 81 7 0 2 -9 -12 -20z m-1840 5 c0 -16
-70 -45 -105 -44 l-40 1 49 9 c27 4 56 15 65 23 15 16 31 21 31 11z m444 -10
c-17 -8 -36 -21 -43 -29 -8 -9 -18 -16 -24 -16 -12 0 19 31 48 48 11 6 27 11
35 11 8 0 1 -7 -16 -14z m-2320 -18 c3 -12 22 -33 43 -45 21 -12 31 -22 22
-22 -27 0 -84 44 -87 68 -4 29 14 29 22 -1z m2706 19 c0 -7 -72 -47 -77 -43
-2 3 11 14 29 26 32 20 48 26 48 17z m705 -16 c3 -5 -1 -10 -9 -10 -9 0 -16 5
-16 10 0 6 4 10 9 10 6 0 13 -4 16 -10z m-3723 -17 c22 -20 24 -63 3 -63 -21
0 -19 -18 3 -23 9 -3 -2 -5 -26 -6 -35 -1 -49 4 -72 28 -21 21 -27 34 -23 51
6 22 7 21 24 -11 18 -34 18 -34 19 -7 0 25 21 47 44 48 5 0 18 -7 28 -17z
m698 -21 c0 -7 -4 -10 -10 -7 -5 3 -10 16 -10 28 0 18 2 19 10 7 5 -8 10 -21
10 -28z m103 32 c11 -11 -25 -54 -44 -54 -22 0 -34 22 -25 45 5 15 56 21 69 9z
m654 0 c-3 -3 -12 -4 -19 -1 -8 3 -5 6 6 6 11 1 17 -2 13 -5z m1973 -2 c0 -13
-12 -22 -22 -16 -10 6 -1 24 13 24 5 0 9 -4 9 -8z m-3190 -12 c0 -5 -2 -10 -4
-10 -3 0 -8 5 -11 10 -3 6 -1 10 4 10 6 0 11 -4 11 -10z m2059 6 c-2 -2 -15
-9 -29 -15 -24 -11 -24 -11 -6 3 16 13 49 24 35 12z m388 -2 c-3 -3 -12 -4
-19 -1 -8 3 -5 6 6 6 11 1 17 -2 13 -5z m-3497 -45 c0 -16 -4 -29 -10 -29 -5
0 -10 16 -10 36 0 21 4 33 10 29 6 -3 10 -19 10 -36z m45 30 c11 -17 -1 -21
-15 -4 -8 9 -8 15 -2 15 6 0 14 -5 17 -11z m2548 -1 c20 -10 25 -18 20 -33 -6
-22 -21 -35 -40 -35 -12 0 -69 48 -62 53 2 1 13 7 24 14 26 15 26 15 58 1z
m1687 -9 c0 -11 -4 -18 -10 -14 -5 3 -7 12 -3 20 7 21 13 19 13 -6z m300 5 c0
-8 -4 -12 -10 -9 -5 3 -10 10 -10 16 0 5 5 9 10 9 6 0 10 -7 10 -16z m70 -29
c-22 -27 -31 -15 -13 18 13 25 18 28 21 14 2 -10 -2 -24 -8 -32z m-900 15 c0
-5 -4 -10 -10 -10 -5 0 -10 5 -10 10 0 6 5 10 10 10 6 0 10 -4 10 -10z m-380
-9 c0 -6 -4 -13 -10 -16 -5 -3 -10 1 -10 9 0 9 5 16 10 16 6 0 10 -4 10 -9z
m-1820 -16 c14 -16 10 -18 -14 -9 -9 3 -16 10 -16 15 0 14 16 11 30 -6z m-901
-33 c0 -24 -1 -25 -9 -7 -12 28 -12 47 0 40 6 -3 10 -18 9 -33z m1311 21 c12
-10 -20 -38 -47 -41 -23 -2 -30 1 -30 15 0 30 17 43 46 36 14 -3 28 -8 31 -10z
m1770 2 c0 -8 -4 -15 -10 -15 -5 0 -7 7 -4 15 4 8 8 15 10 15 2 0 4 -7 4 -15z
m415 -32 c-14 -21 -25 -43 -25 -50 0 -7 -4 -13 -10 -13 -14 0 -13 6 7 43 13
27 39 55 51 57 1 0 -9 -17 -23 -37z m-2258 -33 c14 -11 22 -20 17 -20 -17 0
-54 45 -53 64 2 20 2 19 6 -1 2 -13 16 -32 30 -43z m-1728 21 c12 -16 21 -37
20 -48 0 -14 -3 -12 -10 7 -6 14 -20 35 -31 47 -12 13 -17 23 -10 23 6 0 20
-13 31 -29z m922 -2 c10 -7 8 -8 -8 -6 -28 4 -37 12 -28 27 6 9 9 9 15 0 4 -7
14 -16 21 -21z m3632 -11 c-2 -24 -6 -48 -8 -55 -4 -13 -45 -6 -45 8 0 5 6 6
14 3 9 -4 16 6 21 33 12 66 25 74 18 11z m-2083 22 c0 -5 -5 -10 -11 -10 -5 0
-7 5 -4 10 3 6 8 10 11 10 2 0 4 -4 4 -10z m-2245 -35 c0 -25 -4 -34 -15 -32
-9 1 -14 -5 -14 -16 2 -14 -3 -16 -20 -11 -25 7 -56 40 -56 60 0 22 8 17 25
-16 21 -40 35 -38 28 4 -5 32 -3 35 23 39 16 2 29 5 29 6 0 0 0 -15 0 -34z
m3245 14 c0 -24 -54 -79 -79 -79 -10 0 -8 5 9 13 14 7 33 29 43 50 20 42 27
46 27 16z m-52 -15 c4 -26 -24 -40 -45 -23 -7 7 -11 14 -8 17 2 3 -3 11 -13
18 -15 11 -12 13 23 11 32 -2 41 -6 43 -23z m-2918 -9 c0 -14 -4 -25 -10 -25
-11 0 -14 33 -3 43 11 11 13 8 13 -18z m815 15 c3 -6 -1 -7 -9 -4 -18 7 -21
14 -7 14 6 0 13 -4 16 -10z m1098 3 c-7 -2 -19 -2 -25 0 -7 3 -2 5 12 5 14 0
19 -2 13 -5z m2079 -15 c-7 -7 -12 -8 -12 -2 0 6 3 14 7 17 3 4 9 5 12 2 2 -3
-1 -11 -7 -17z m-1442 -43 c-21 -20 -57 -9 -55 17 2 31 27 40 50 18 17 -18 18
-22 5 -35z m700 45 c0 -5 -4 -10 -9 -10 -6 0 -13 5 -16 10 -3 6 1 10 9 10 9 0
16 -4 16 -10z m90 -40 c-13 -24 -68 -50 -102 -49 -13 0 -4 6 22 12 38 10 48
18 65 52 13 27 21 35 23 23 2 -9 -2 -27 -8 -38z m-2837 19 c26 -30 15 -34 -13
-4 -13 14 -19 25 -14 25 5 0 18 -9 27 -21z m2097 6 c0 -21 -59 -85 -79 -85
-10 0 -4 8 16 21 17 11 36 33 42 49 11 32 21 39 21 15z m688 3 c17 -17 15 -35
-4 -42 -26 -10 -46 12 -31 35 14 22 19 23 35 7z m-2183 -8 c13 -6 15 -9 5 -9
-8 0 -22 4 -30 9 -18 12 -2 12 25 0z m225 -6 c0 -2 -16 -4 -35 -4 -19 0 -35 4
-35 8 0 4 16 6 35 4 19 -2 35 -6 35 -8z m573 9 c-7 -2 -19 -2 -25 0 -7 3 -2 5
12 5 14 0 19 -2 13 -5z m-1800 -40 c37 -29 57 -62 57 -91 -1 -9 -7 -2 -16 17
-18 43 -68 89 -103 94 l-26 4 26 2 c15 0 41 -11 62 -26z m1052 7 c10 -11 16
-20 13 -20 -3 0 -13 9 -23 20 -10 11 -16 20 -13 20 3 0 13 -9 23 -20z m683 0
c78 -5 150 -14 160 -19 14 -9 12 -11 -13 -12 -25 -1 -23 -3 15 -11 25 -5 73
-16 108 -25 47 -12 66 -13 75 -4 8 8 1 11 -28 11 -47 0 -39 11 12 16 27 3 42
-2 56 -17 10 -10 22 -17 28 -14 8 5 13 -7 11 -27 -1 -3 36 -25 81 -49 114 -59
278 -163 334 -213 56 -49 104 -121 171 -258 42 -86 55 -128 81 -255 17 -84 31
-175 31 -203 0 -51 6 -60 28 -38 20 20 15 -12 -5 -34 -14 -15 -19 -49 -24
-166 -5 -81 -12 -158 -18 -172 l-10 -25 0 27 -1 27 -25 -24 c-33 -34 -60 -31
-148 14 l-77 39 -20 -26 c-35 -47 -40 -52 -60 -52 -11 0 -24 -10 -31 -22 -6
-13 -21 -31 -33 -41 -16 -13 -17 -16 -3 -11 27 10 21 -21 -9 -45 -14 -11 -31
-18 -38 -15 -20 8 -27 -23 -10 -41 9 -8 11 -15 5 -15 -6 0 -11 -15 -11 -32 l1
-33 20 28 c11 15 27 27 35 27 8 0 17 6 20 14 3 8 13 17 21 20 14 6 14 4 2 -11
-7 -10 -29 -34 -47 -53 -47 -48 -57 -78 -36 -101 26 -29 38 -23 63 26 12 24
27 47 33 51 16 10 -2 -37 -27 -71 -16 -21 -20 -36 -15 -50 7 -18 9 -18 19 8 6
16 11 32 11 37 0 15 40 32 61 27 17 -5 18 -3 4 31 -9 19 -12 38 -9 41 4 3 9 0
11 -6 3 -7 18 -13 34 -13 20 0 34 -8 45 -25 16 -24 16 -27 -1 -39 -18 -13 -17
-14 3 -32 28 -24 29 -48 2 -39 -16 5 -20 2 -20 -16 0 -19 4 -21 30 -15 36 7
37 3 6 -30 -20 -23 -24 -24 -30 -9 -5 15 -9 14 -27 -9 -12 -15 -18 -30 -14
-34 4 -4 13 2 22 13 15 19 15 19 8 -5 -4 -14 -14 -32 -21 -41 -8 -8 -19 -29
-24 -46 -10 -29 -60 -64 -60 -43 0 6 -8 10 -17 9 -11 0 -13 -3 -5 -6 20 -8 13
-25 -8 -18 -24 8 -26 -1 -5 -22 16 -15 12 -33 -7 -33 -5 0 -8 7 -5 14 11 27
-23 5 -39 -25 -8 -16 -22 -29 -31 -29 -15 0 -46 -28 -75 -68 -7 -10 -20 -23
-29 -28 -8 -5 -54 -50 -102 -100 -47 -51 -88 -89 -91 -86 -3 3 -6 -6 -6 -20 0
-14 -12 -41 -27 -59 -40 -47 -178 -187 -168 -169 5 8 10 21 11 28 2 8 10 22
18 31 16 17 12 31 -7 31 -6 0 -8 -3 -4 -6 3 -3 -2 -20 -12 -37 -10 -18 -21
-52 -25 -76 -3 -24 -15 -62 -26 -84 -11 -22 -16 -43 -12 -46 16 -11 33 -51 22
-51 -6 0 -13 7 -16 15 -7 17 -24 10 -24 -9 0 -8 13 -16 29 -19 24 -5 30 -14
43 -59 13 -48 13 -55 -1 -75 -9 -11 -30 -27 -48 -34 -18 -7 -34 -18 -37 -26
-3 -7 -16 -13 -30 -13 -34 0 -56 -10 -56 -25 0 -17 49 -29 65 -15 10 8 21 7
44 -4 16 -9 37 -16 45 -16 8 0 18 -9 21 -20 8 -24 18 -25 39 -4 14 13 16 13
16 0 0 -8 -6 -21 -14 -29 -12 -12 -12 -16 5 -28 10 -7 19 -21 19 -30 0 -10 6
-19 13 -22 6 -2 9 -7 6 -11 -4 -4 -34 0 -67 8 -78 21 -101 20 -169 -4 -72 -25
-104 -25 -171 0 -63 24 -95 25 -174 4 -33 -8 -63 -12 -67 -8 -3 4 0 9 7 11 6
3 12 10 12 16 0 6 9 20 20 32 l20 21 -21 23 c-27 28 -18 38 14 16 24 -16 26
-15 37 4 6 12 19 21 29 21 10 0 30 9 44 20 22 18 27 18 34 5 7 -13 13 -13 36
-3 15 7 27 17 27 21 0 5 -4 5 -10 2 -10 -6 -80 23 -80 34 0 3 -13 12 -28 19
-16 6 -38 21 -50 32 -20 19 -20 21 -5 72 8 29 19 58 25 65 32 40 -6 238 -50
254 -33 13 -172 161 -172 184 0 7 -7 18 -15 25 -8 7 -15 17 -15 23 0 14 -89
97 -115 106 -11 5 -20 17 -20 27 0 10 -12 24 -27 32 -16 7 -28 18 -28 23 0 16
-66 79 -83 79 -8 0 -24 16 -36 36 -12 19 -26 32 -31 29 -6 -4 -8 -11 -5 -16 4
-5 2 -9 -4 -9 -6 0 -15 9 -21 20 -9 17 -8 20 12 21 17 1 14 3 -10 9 -39 9 -69
34 -88 75 -35 72 -82 137 -95 130 -18 -12 -16 37 3 55 12 11 17 24 13 31 -6 9
-11 7 -21 -6 -11 -15 -13 -12 -11 24 1 22 4 41 7 41 3 0 14 -14 24 -31 13 -23
21 -28 27 -18 4 8 1 18 -9 25 -20 15 -8 43 26 59 16 7 20 15 16 32 -4 14 -2
23 5 23 6 0 11 -10 11 -21 0 -12 8 -28 18 -35 14 -10 15 -15 5 -25 -20 -20
-16 -24 19 -24 28 0 35 -6 55 -45 19 -38 23 -41 23 -19 0 14 -11 40 -25 59
-14 19 -25 46 -25 61 0 16 -9 33 -22 43 l-23 16 25 -2 c20 -2 26 -10 30 -38 6
-35 49 -120 61 -120 4 0 17 8 29 18 28 23 17 52 -41 109 -41 41 -51 74 -11 36
11 -10 34 -30 50 -45 17 -14 28 -28 25 -31 -13 -14 20 -47 47 -47 40 0 47 17
10 25 -16 4 -30 10 -30 15 0 4 9 6 20 3 11 -3 20 0 20 6 0 6 -8 11 -18 11 -10
0 -22 3 -26 8 -4 4 -13 7 -19 7 -7 0 -10 19 -8 53 2 34 -1 52 -9 52 -7 0 -9
-8 -5 -22 6 -17 4 -20 -9 -15 -9 4 -16 2 -16 -3 0 -6 5 -10 10 -10 6 0 10 -4
10 -10 0 -18 -22 -11 -27 9 -3 11 -13 21 -24 24 -11 3 -19 14 -19 27 0 11 5
18 10 15 6 -3 10 -12 10 -20 0 -8 7 -11 20 -8 19 5 19 6 -5 25 -27 21 -34 51
-10 42 8 -4 15 -1 15 5 0 6 -9 11 -20 11 -11 0 -20 6 -20 14 0 8 -12 28 -26
45 -25 30 -29 31 -102 31 -88 0 -211 24 -224 42 -13 19 -1 109 16 126 13 13
25 13 95 -2 86 -19 121 -15 121 12 0 15 -2 15 -10 2 -8 -12 -10 -11 -10 8 0
26 -16 30 -24 5 -3 -11 -4 -8 -3 6 2 21 -4 26 -38 34 -22 5 -62 6 -89 3 -32
-4 -55 -1 -64 7 -13 10 -14 -6 -8 -123 9 -195 14 -254 26 -285 9 -25 3 -111
-7 -101 -3 3 -7 27 -9 53 -2 26 -9 91 -14 143 -16 148 -30 440 -24 495 7 61
50 288 63 333 5 18 38 87 73 154 45 87 79 138 118 178 63 63 217 168 337 230
54 27 80 46 77 55 -7 16 11 28 49 32 17 2 26 -1 22 -7 -9 -14 0 -13 80 10 38
11 99 23 135 26 36 4 72 11 80 15 9 6 -7 7 -40 3 -40 -4 -51 -3 -40 5 8 6 32
11 53 11 21 0 36 4 33 9 -7 11 108 11 282 1z m2079 -11 c-15 -12 -39 -38 -52
-57 -14 -20 -25 -30 -25 -21 0 20 49 79 75 90 32 12 32 10 2 -12z m-3377 -44
c0 -5 -5 -3 -10 5 -5 8 -10 20 -10 25 0 6 5 3 10 -5 5 -8 10 -19 10 -25z
m3100 15 c0 -5 -2 -10 -4 -10 -3 0 -8 5 -11 10 -3 6 -1 10 4 10 6 0 11 -4 11
-10z m-3996 -40 c-6 -5 -24 21 -24 34 0 6 6 1 14 -10 8 -10 12 -21 10 -24z
m1719 33 c-7 -2 -19 -2 -25 0 -7 3 -2 5 12 5 14 0 19 -2 13 -5z m2373 -48 c-9
-14 -21 -25 -27 -25 -6 0 -1 13 10 29 12 16 22 35 22 43 1 7 3 5 6 -5 3 -10
-3 -29 -11 -42z m-382 21 c-6 -16 -24 -23 -24 -8 0 10 22 33 27 28 2 -2 1 -11
-3 -20z m326 9 c0 -8 -4 -15 -10 -15 -5 0 -10 7 -10 15 0 8 5 15 10 15 6 0 10
-7 10 -15z m-4088 -47 c-9 -9 -12 -4 -11 23 0 32 1 33 11 11 8 -17 8 -26 0
-34z m1066 28 c15 16 62 19 62 4 0 -5 -5 -10 -11 -10 -6 0 -9 -7 -5 -15 4 -11
-1 -15 -19 -15 -31 0 -32 -13 -2 -28 12 -6 17 -11 10 -11 -24 -2 -73 50 -73
77 1 26 1 27 13 6 10 -19 14 -20 25 -8z m2017 14 c3 -5 -1 -10 -10 -10 -9 0
-13 5 -10 10 3 6 8 10 10 10 2 0 7 -4 10 -10z m-2405 -28 c1 -16 2 -16 14 1
12 16 56 24 68 12 11 -12 -5 -65 -21 -65 -11 -1 -9 -5 9 -15 l25 -15 -30 6
c-60 13 -86 39 -82 82 1 24 17 19 17 -6z m3130 3 c0 -20 -5 -25 -22 -24 -17 1
-19 2 -5 6 9 2 17 13 17 24 0 10 2 19 5 19 3 0 5 -11 5 -25z m-4096 -30 c-4
-8 -10 -12 -15 -9 -11 6 -2 24 11 24 5 0 7 -7 4 -15z m1756 5 c0 -13 -41 -30
-54 -22 -11 6 22 32 41 32 7 0 13 -5 13 -10z m-1298 -42 c14 -23 33 -67 25
-58 -3 3 -21 27 -41 53 -24 31 -30 45 -18 38 11 -6 26 -20 34 -33z m4034 -20
c-5 -32 -14 -58 -19 -58 -10 0 -2 56 14 97 15 40 17 23 5 -39z m-3599 30 c-3
-8 -6 -5 -6 6 -1 11 2 17 5 13 3 -3 4 -12 1 -19z m780 0 c-3 -8 -6 -5 -6 6 -1
11 2 17 5 13 3 -3 4 -12 1 -19z m2298 -8 c-10 -11 -21 -18 -23 -15 -3 3 3 12
14 20 27 20 30 18 9 -5z m-3310 -20 c2 -4 -2 -15 -9 -25 -17 -24 -46 -13 -46
18 0 20 4 23 25 19 14 -2 27 -8 30 -12z m655 10 c0 -5 -2 -10 -4 -10 -3 0 -8
5 -11 10 -3 6 -1 10 4 10 6 0 11 -4 11 -10z m123 3 c-7 -2 -19 -2 -25 0 -7 3
-2 5 12 5 14 0 19 -2 13 -5z m2997 -18 c-7 -9 -15 -13 -18 -10 -3 2 1 11 8 20
7 9 15 13 18 10 3 -2 -1 -11 -8 -20z m-3824 -37 c16 -16 16 -18 1 -18 -18 0
-47 37 -47 60 1 11 4 10 15 -5 8 -11 22 -28 31 -37z m298 10 c4 -24 3 -38 -4
-38 -5 0 -10 19 -10 42 0 49 5 47 14 -4z m801 22 c3 -5 1 -10 -4 -10 -6 0 -11
5 -11 10 0 6 2 10 4 10 3 0 8 -4 11 -10z m-745 -21 c0 -6 -4 -7 -10 -4 -5 3
-10 11 -10 16 0 6 5 7 10 4 6 -3 10 -11 10 -16z m2970 1 c-6 -11 -13 -20 -16
-20 -2 0 0 9 6 20 6 11 13 20 16 20 2 0 0 -9 -6 -20z m-460 -45 c-6 -15 -13
-26 -16 -23 -2 3 0 18 6 33 6 15 13 26 16 23 2 -3 0 -18 -6 -33z m270 26 c0
-5 8 -8 18 -7 21 1 23 -28 2 -31 -8 -2 -20 8 -27 22 -6 14 -7 25 -2 25 5 0 9
-4 9 -9z m1090 -21 c-6 -12 -14 -19 -17 -17 -2 3 1 15 7 27 6 12 14 19 17 17
2 -3 -1 -15 -7 -27z m-1392 3 c-4 -24 -38 -26 -38 -2 0 13 7 19 21 19 14 0 19
-5 17 -17z m374 -15 c-7 -7 -12 -8 -12 -2 0 6 3 14 7 17 3 4 9 5 12 2 2 -3 -1
-11 -7 -17z m-3227 -38 c3 -5 1 -10 -4 -10 -6 0 -11 5 -11 10 0 6 2 10 4 10 3
0 8 -4 11 -10z m3595 -20 c-6 -12 -14 -19 -17 -17 -2 3 1 15 7 27 6 12 14 19
17 17 2 -3 -1 -15 -7 -27z m113 15 c-3 -9 -8 -14 -10 -11 -3 3 -2 9 2 15 9 16
15 13 8 -4z m-3750 -14 c5 -22 -1 -33 -14 -25 -12 7 -12 44 0 44 5 0 11 -9 14
-19z m2944 -3 c-3 -8 -6 -5 -6 6 -1 11 2 17 5 13 3 -3 4 -12 1 -19z m643 6 c0
-8 -4 -12 -10 -9 -5 3 -10 10 -10 16 0 5 5 9 10 9 6 0 10 -7 10 -16z m-3920
-57 c0 -21 -18 7 -25 38 l-7 30 16 -29 c9 -15 16 -33 16 -39z m1198 22 c-3
-20 -5 -19 -9 9 -3 20 -2 29 4 23 5 -5 7 -19 5 -32z m-1138 23 c0 -13 -12 -22
-22 -16 -10 6 -1 24 13 24 5 0 9 -4 9 -8z m3552 -14 c-7 -7 -12 -8 -12 -2 0 6
3 14 7 17 3 4 9 5 12 2 2 -3 -1 -11 -7 -17z m-2755 -10 c-3 -8 -6 -5 -6 6 -1
11 2 17 5 13 3 -3 4 -12 1 -19z m2467 1 c-3 -5 -10 -7 -15 -3 -5 3 -7 10 -3
15 3 5 10 7 15 3 5 -3 7 -10 3 -15z m1288 -1 c-7 -7 -12 -8 -12 -2 0 6 3 14 7
17 3 4 9 5 12 2 2 -3 -1 -11 -7 -17z m-4744 -23 c-3 -3 -9 2 -12 12 -6 14 -5
15 5 6 7 -7 10 -15 7 -18z m3792 3 c0 -16 -3 -19 -11 -11 -6 6 -8 16 -5 22 11
17 16 13 16 -11z m992 -50 c-16 -16 -20 5 -8 42 l10 35 4 -34 c2 -18 -1 -38
-6 -43z m-3626 51 c5 -9 -7 -44 -23 -68 -5 -7 -53 49 -53 62 0 15 67 21 76 6z
m2939 -48 c-3 -6 -11 -11 -17 -11 -6 0 -6 6 2 15 14 17 26 13 15 -4z m-3445
-19 c0 -15 -2 -15 -10 -2 -13 20 -13 33 0 25 6 -3 10 -14 10 -23z m153 14 c3
-8 -2 -24 -12 -35 -17 -20 -19 -20 -35 -3 -9 10 -16 25 -16 33 0 12 2 12 9 0
8 -12 12 -12 26 2 20 21 21 21 28 3z m3668 -19 c-5 -14 -15 -28 -20 -32 -15
-8 -14 -4 5 34 19 37 29 36 15 -2z m-335 -25 c-12 -11 -18 7 -10 30 l8 23 4
-23 c2 -13 1 -26 -2 -30z m462 21 c-14 -16 -30 -37 -36 -48 -6 -11 -12 -15
-12 -8 0 13 57 83 68 83 3 0 -6 -12 -20 -27z m-4458 -15 c0 -6 -7 -5 -15 2 -8
7 -15 17 -15 22 0 6 7 5 15 -2 8 -7 15 -17 15 -22z m-50 -45 c0 -27 -12 -30
-31 -6 -12 14 -12 15 0 9 10 -7 12 -2 7 25 -7 32 -6 33 9 15 8 -11 15 -30 15
-43z m960 7 c0 -5 -5 -10 -11 -10 -5 0 -7 5 -4 10 3 6 8 10 11 10 2 0 4 -4 4
-10z m2441 -23 c-1 -12 -15 -9 -19 4 -3 6 1 10 8 8 6 -3 11 -8 11 -12z m-2731
-12 c7 -9 8 -15 2 -15 -5 0 -12 7 -16 15 -3 8 -4 15 -2 15 2 0 9 -7 16 -15z
m3185 -21 c-12 -24 -15 -25 -15 -8 0 11 5 25 12 32 18 18 20 8 3 -24z m-3488
0 c-9 -9 -28 6 -21 18 4 6 10 6 17 -1 6 -6 8 -13 4 -17z m4003 5 c-7 -11 -14
-18 -17 -15 -3 3 0 12 7 21 18 21 23 19 10 -6z m-4050 -24 c0 -5 -5 -3 -10 5
-5 8 -10 20 -10 25 0 6 5 3 10 -5 5 -8 10 -19 10 -25z m310 9 c0 -8 -4 -14
-10 -14 -5 0 -10 9 -10 21 0 11 5 17 10 14 6 -3 10 -13 10 -21z m-426 0 c9
-24 7 -28 -9 -14 -17 14 -20 30 -6 30 5 0 12 -7 15 -16z m3556 6 c0 -5 -5 -10
-11 -10 -5 0 -7 5 -4 10 3 6 8 10 11 10 2 0 4 -4 4 -10z m652 -35 c-2 -14 -8
-28 -13 -31 -10 -6 -12 26 -3 50 9 24 22 10 16 -19z m328 25 c0 -5 -2 -10 -4
-10 -3 0 -8 5 -11 10 -3 6 -1 10 4 10 6 0 11 -4 11 -10z m-1302 -32 c-2 -6
-10 -14 -16 -16 -7 -2 -10 2 -6 12 7 18 28 22 22 4z m-2768 -12 c0 -11 -19
-15 -25 -6 -3 5 1 10 9 10 9 0 16 -2 16 -4z m2810 -28 c0 -16 -3 -19 -11 -11
-6 6 -8 16 -5 22 11 17 16 13 16 -11z m-3146 -28 c-6 -5 -24 21 -24 34 0 6 6
1 14 -10 8 -10 12 -21 10 -24z m3421 21 c-3 -6 -11 -11 -17 -11 -6 0 -6 6 2
15 14 17 26 13 15 -4z m971 -19 c-17 -16 -18 -16 -5 5 7 12 15 20 18 17 3 -2
-3 -12 -13 -22z m-4433 -47 c-7 -19 -23 -9 -23 13 0 15 -2 15 -11 2 -9 -12
-10 -12 -5 3 3 10 6 24 6 30 1 7 9 2 20 -11 10 -13 17 -29 13 -37z m3500 35
c-3 -11 -7 -20 -9 -20 -2 0 -4 9 -4 20 0 11 4 20 9 20 5 0 7 -9 4 -20z m-2833
7 c0 -2 -8 -12 -19 -21 -17 -15 -19 -15 -25 -1 -3 9 -2 13 4 10 6 -3 10 -1 10
4 0 6 7 11 15 11 8 0 15 -2 15 -3z m3760 -82 c-7 -9 -15 -13 -18 -10 -3 2 1
11 8 20 7 9 15 13 18 10 3 -2 -1 -11 -8 -20z m-4080 1 c0 -3 -4 -8 -10 -11 -5
-3 -10 -1 -10 4 0 6 5 11 10 11 6 0 10 -2 10 -4z m290 -17 c0 -5 -4 -9 -10 -9
-5 0 -10 7 -10 16 0 8 5 12 10 9 6 -3 10 -10 10 -16z m-1070 1 c0 -5 -2 -10
-4 -10 -3 0 -8 5 -11 10 -3 6 -1 10 4 10 6 0 11 -4 11 -10z m4265 -22 c-10
-34 -23 -44 -31 -25 -6 18 11 47 28 47 5 0 6 -10 3 -22z m296 -35 c-12 -20
-14 -14 -5 12 4 9 9 14 11 11 3 -2 0 -13 -6 -23z m-4431 -8 c20 -24 6 -28 -15
-5 -10 11 -13 20 -8 20 6 0 16 -7 23 -15z m620 -6 c0 -6 -4 -7 -10 -4 -5 3
-10 11 -10 16 0 6 5 7 10 4 6 -3 10 -11 10 -16z m-655 -38 c10 -20 12 -32 4
-36 -13 -9 -13 -8 -27 33 -14 40 2 42 23 3z m621 -6 c4 -14 3 -29 0 -33 -9 -8
-26 18 -26 41 0 26 19 20 26 -8z m2916 -7 c-7 -7 -12 -8 -12 -2 0 6 3 14 7 17
3 4 9 5 12 2 2 -3 -1 -11 -7 -17z m918 -23 c-7 -9 -15 -13 -18 -10 -3 2 1 11
8 20 7 9 15 13 18 10 3 -2 -1 -11 -8 -20z m-4510 0 c0 -8 -4 -15 -10 -15 -5 0
-10 7 -10 15 0 8 5 15 10 15 6 0 10 -7 10 -15z m3894 -39 c-6 -16 -24 -23 -24
-8 0 10 22 33 27 28 2 -2 1 -11 -3 -20z m656 9 c0 -15 -24 -54 -31 -49 -10 6
10 54 23 54 4 0 8 -2 8 -5z m310 -20 c0 -8 -4 -15 -10 -15 -5 0 -10 7 -10 15
0 8 5 15 10 15 6 0 10 -7 10 -15z m-923 -13 c-2 -4 -7 -15 -10 -25 -4 -10 -11
-16 -17 -12 -6 4 -5 15 2 30 6 13 15 22 20 19 4 -3 7 -8 5 -12z m-3527 -22 c0
-18 -19 -11 -30 11 -11 19 -10 20 9 9 12 -6 21 -15 21 -20z m4180 15 c0 -8 -4
-15 -10 -15 -5 0 -10 7 -10 15 0 8 5 15 10 15 6 0 10 -7 10 -15z m-3583 -71
c-10 -10 -37 16 -37 34 0 13 4 12 22 -5 12 -13 19 -25 15 -29z m-947 20 c0 -8
-4 -12 -10 -9 -5 3 -10 10 -10 16 0 5 5 9 10 9 6 0 10 -7 10 -16z m320 -25 c0
-17 -20 -29 -20 -11 0 4 -3 18 -7 32 -6 22 -5 24 10 11 9 -7 17 -22 17 -32z
m-50 6 c0 -8 -4 -15 -10 -15 -5 0 -10 7 -10 15 0 8 5 15 10 15 6 0 10 -7 10
-15z m3874 -9 c-6 -16 -34 -30 -34 -18 0 5 5 13 12 20 16 16 29 15 22 -2z
m-3234 -31 c0 -8 -4 -15 -10 -15 -5 0 -10 7 -10 15 0 8 5 15 10 15 6 0 10 -7
10 -15z m3560 -11 c0 -8 -4 -14 -10 -14 -5 0 -10 9 -10 21 0 11 5 17 10 14 6
-3 10 -13 10 -21z m-270 -24 c0 -5 -4 -10 -10 -10 -5 0 -10 5 -10 10 0 6 5 10
10 10 6 0 10 -4 10 -10z m-3540 -38 c-7 -3 -16 2 -21 9 -16 25 -9 32 12 13 13
-12 16 -20 9 -22z m4100 28 c0 -5 -8 -10 -17 -10 -15 0 -16 2 -3 10 19 12 20
12 20 0z m-310 -35 c-7 -8 -17 -15 -23 -15 -5 0 -2 9 8 20 21 23 35 19 15 -5z
m-4115 6 c3 -5 1 -12 -5 -16 -5 -3 -10 1 -10 9 0 18 6 21 15 7z m-280 -41 c12
-19 -12 -10 -31 11 -19 22 -19 22 3 10 12 -6 25 -16 28 -21z m545 5 c0 -8 -4
-15 -10 -15 -5 0 -10 7 -10 15 0 8 5 15 10 15 6 0 10 -7 10 -15z m40 -16 c0
-5 -7 -9 -15 -9 -15 0 -20 12 -9 23 8 8 24 -1 24 -14z m3188 -9 c-7 -11 -19
-20 -27 -20 -11 0 -10 5 4 20 10 11 22 20 27 20 4 0 3 -9 -4 -20z m302 -16 c0
-8 -5 -12 -10 -9 -6 4 -8 11 -5 16 9 14 15 11 15 -7z m290 -19 c-7 -9 -15 -13
-17 -11 -7 7 7 26 19 26 6 0 6 -6 -2 -15z m-547 -21 c-4 -10 -9 -12 -15 -6
-12 12 -1 35 12 27 5 -3 6 -13 3 -21z m-3898 -9 c0 -10 -6 -20 -12 -22 -8 -3
-13 5 -13 22 0 17 5 25 13 23 6 -3 12 -13 12 -23z m50 16 c3 -5 1 -12 -5 -16
-5 -3 -10 1 -10 9 0 18 6 21 15 7z m-88 -23 c-3 -8 -6 -5 -6 6 -1 11 2 17 5
13 3 -3 4 -12 1 -19z m1053 -28 c0 -20 -24 -9 -50 24 -15 19 -14 19 18 2 17
-9 32 -21 32 -26z m-318 5 c4 -20 3 -23 -8 -14 -16 13 -19 39 -5 39 5 0 11
-11 13 -25z m-287 5 c3 -5 -1 -10 -9 -10 -9 0 -16 5 -16 10 0 6 4 10 9 10 6 0
13 -4 16 -10z m4105 -20 c0 -23 -13 -32 -34 -24 -20 8 -21 34 -1 34 8 0 15 5
15 11 0 5 5 7 10 4 6 -3 10 -15 10 -25z m-3560 -16 c0 -8 -4 -14 -10 -14 -5 0
-10 9 -10 21 0 11 5 17 10 14 6 -3 10 -13 10 -21z m3830 6 c0 -24 -26 -38 -42
-22 -6 6 -7 16 -3 22 6 9 10 9 16 -1 7 -11 9 -10 9 4 0 9 5 17 10 17 6 0 10
-9 10 -20z m-4432 -48 c3 -16 -2 -22 -17 -22 -24 0 -35 15 -27 36 9 23 40 13
44 -14z m3472 19 c0 -5 -6 -14 -14 -20 -12 -10 -13 -8 -9 8 5 21 23 30 23 12z
m290 0 c0 -5 -7 -11 -15 -15 -9 -3 -15 0 -15 9 0 8 7 15 15 15 8 0 15 -4 15
-9z m-4034 -16 c4 -8 1 -22 -6 -30 -17 -20 -42 3 -29 28 12 21 28 22 35 2z
m308 -1 c4 -10 1 -14 -6 -12 -15 5 -23 28 -10 28 5 0 13 -7 16 -16z m3186 -22
c0 -13 -12 -22 -22 -16 -10 6 -1 24 13 24 5 0 9 -4 9 -8z m590 -26 c0 -32 -18
-43 -38 -23 -13 13 -13 19 -2 31 19 24 40 19 40 -8z m270 0 c0 -8 -8 -24 -18
-37 l-19 -22 -7 27 c-5 21 -2 31 11 41 20 15 33 11 33 -9z m-3682 -4 c2 -7 -2
-10 -12 -6 -9 3 -16 11 -16 16 0 13 23 5 28 -10z m282 -8 c0 -9 -5 -14 -12
-12 -18 6 -21 28 -4 28 9 0 16 -7 16 -16z m-600 -39 c0 -16 -6 -25 -15 -25 -9
0 -15 9 -15 25 0 16 6 25 15 25 9 0 15 -9 15 -25z m270 10 c16 -19 4 -35 -26
-35 -27 0 -28 3 -14 31 13 23 23 24 40 4z m3067 -22 c-9 -9 -19 -14 -23 -11
-10 10 6 28 24 28 15 0 15 -1 -1 -17z m-3037 -13 c0 -5 -4 -10 -10 -10 -5 0
-10 5 -10 10 0 6 5 10 10 10 6 0 10 -4 10 -10z m2470 -4 c0 -2 -7 -7 -16 -10
-8 -3 -12 -2 -9 4 6 10 25 14 25 6z m610 -13 c0 -10 -14 -34 -30 -53 -27 -33
-30 -34 -46 -18 -14 14 -15 20 -4 32 7 9 18 16 24 16 6 0 17 9 24 20 15 25 32
26 32 3z m260 -3 c0 -10 -9 -24 -20 -30 -21 -11 -23 -8 -14 28 8 27 34 29 34
2z m-3920 -20 c0 -5 -7 -7 -15 -4 -8 4 -15 8 -15 10 0 2 7 4 15 4 8 0 15 -4
15 -10z m935 -1 c12 -19 -5 -23 -22 -6 -16 16 -16 17 -1 17 9 0 20 -5 23 -11z
m376 -2 c15 -12 21 -57 8 -57 -4 0 -12 7 -19 15 -10 12 -10 15 1 15 10 1 9 4
-3 14 -19 14 -24 26 -10 26 4 0 14 -6 23 -13z m-681 -28 c0 -11 -4 -17 -10
-14 -5 3 -10 15 -10 26 0 11 5 17 10 14 6 -3 10 -15 10 -26z m2727 -6 c-3 -10
-5 -4 -5 12 0 17 2 24 5 18 2 -7 2 -21 0 -30z m-328 14 c12 -15 -3 -37 -26
-37 -7 0 -15 -11 -19 -24 -4 -18 -14 -25 -40 -28 -19 -2 -34 -1 -34 3 0 11 38
21 50 14 5 -3 10 0 10 8 0 8 9 22 20 32 12 10 18 25 16 32 -7 17 8 17 23 0z
m1601 -27 c5 -3 3 -13 -4 -22 -18 -25 -56 -12 -56 18 0 30 43 52 49 25 2 -9 7
-18 11 -21z m-3732 7 c2 -12 -1 -15 -12 -11 -19 7 -22 38 -3 32 6 -3 13 -12
15 -21z m3302 13 c0 -5 -4 -10 -10 -10 -5 0 -10 5 -10 10 0 6 5 10 10 10 6 0
10 -4 10 -10z m-4249 -53 c-6 -15 -17 -27 -25 -27 -20 0 -37 25 -30 44 7 19
40 22 47 4 3 -7 6 -4 7 7 1 11 4 15 6 9 3 -6 0 -23 -5 -37z m1150 9 c-6 -7
-22 -16 -34 -19 -19 -5 -18 -3 8 18 30 25 46 26 26 1z m2173 -13 c3 -8 -1 -10
-12 -6 -22 8 -42 24 -42 33 0 12 49 -13 54 -27z m-2924 17 c0 -5 -4 -10 -10
-10 -5 0 -10 5 -10 10 0 6 5 10 10 10 6 0 10 -4 10 -10z m2998 -51 c-3 -69
-18 -93 -18 -27 0 43 9 88 16 88 3 0 3 -27 2 -61z m222 52 c0 -12 -20 -25 -27
-18 -7 7 6 27 18 27 5 0 9 -4 9 -9z m-2639 -14 c-1 -12 -15 -9 -19 4 -3 6 1
10 8 8 6 -3 11 -8 11 -12z m399 -3 c0 -2 -9 -4 -20 -4 -11 0 -20 4 -20 9 0 5
9 7 20 4 11 -3 20 -7 20 -9z m1710 6 c0 -5 -10 -10 -22 -9 -22 0 -22 1 -3 9
11 5 21 9 23 9 1 1 2 -3 2 -9z m1220 -30 c0 -24 -3 -27 -21 -23 -29 8 -36 33
-14 49 24 18 35 9 35 -26z m-410 6 c0 -3 -4 -8 -10 -11 -5 -3 -10 -1 -10 4 0
6 5 11 10 11 6 0 10 -2 10 -4z m-3542 -34 c2 -14 -2 -22 -12 -22 -19 0 -29 17
-22 36 8 22 30 12 34 -14z m837 -7 c0 -11 8 -21 18 -23 10 -2 17 3 17 12 0 8
5 18 12 22 6 4 8 3 4 -4 -3 -6 -2 -13 4 -17 16 -10 12 -38 -5 -32 -8 4 -17 2
-20 -3 -11 -18 -55 23 -48 44 4 15 2 18 -11 13 -11 -4 -15 -3 -11 4 11 17 40
5 40 -16z m2065 16 c0 -12 -20 -25 -27 -18 -7 7 6 27 18 27 5 0 9 -4 9 -9z
m1320 -10 c0 -11 -5 -23 -11 -27 -15 -9 -33 12 -26 30 9 23 37 20 37 -3z
m-3826 -12 c-3 -5 -10 -7 -15 -3 -5 3 -7 10 -3 15 3 5 10 7 15 3 5 -3 7 -10 3
-15z m2361 9 c-3 -7 -17 -18 -31 -25 -22 -10 -25 -9 -22 5 2 9 14 19 28 23 14
4 26 7 27 8 1 1 0 -5 -2 -11z m85 -15 c0 -11 7 -14 25 -10 24 4 25 3 9 -14 -9
-10 -22 -15 -28 -12 -11 7 -16 9 -48 11 -12 2 -15 7 -11 19 4 11 8 13 11 5 3
-10 7 -10 18 -1 8 6 11 16 7 22 -3 6 -1 7 5 3 7 -4 12 -14 12 -23z m744 -6
c-7 -19 -29 -23 -39 -6 -8 13 27 41 38 30 4 -4 5 -15 1 -24z m-3856 -5 c2 -12
-1 -22 -6 -22 -19 0 -42 12 -42 22 0 5 5 6 10 3 6 -3 10 1 10 10 0 24 24 12
28 -13z m312 18 c0 -5 -4 -10 -10 -10 -5 0 -10 5 -10 10 0 6 5 10 10 10 6 0
10 -4 10 -10z m318 -39 c3 -8 -1 -12 -9 -9 -7 2 -15 10 -17 17 -3 8 1 12 9 9
7 -2 15 -10 17 -17z m692 -2 c0 -5 -4 -9 -10 -9 -5 0 -10 7 -10 16 0 8 5 12
10 9 6 -3 10 -10 10 -16z m1621 -22 c-8 -8 -11 -5 -11 9 0 27 14 41 18 19 2
-9 -1 -22 -7 -28z m514 33 c-3 -5 -10 -10 -16 -10 -5 0 -9 5 -9 10 0 6 7 10
16 10 8 0 12 -4 9 -10z m353 -12 c-5 -32 -28 -35 -28 -4 0 17 5 26 16 26 10 0
14 -7 12 -22z m310 5 c-2 -10 -11 -19 -21 -21 -16 -3 -17 -1 -7 17 13 25 33
28 28 4z m-2858 -41 c0 -7 -4 -10 -10 -7 -5 3 -10 13 -10 21 0 8 -5 14 -11 14
-5 0 -7 5 -3 12 8 13 34 -17 34 -40z m-895 20 c0 -18 -20 -15 -23 4 -3 10 1
15 10 12 7 -3 13 -10 13 -16z m582 -14 c-3 -8 -6 -5 -6 6 -1 11 2 17 5 13 3
-3 4 -12 1 -19z m2058 12 c3 -5 1 -10 -4 -10 -6 0 -11 5 -11 10 0 6 2 10 4 10
3 0 8 -4 11 -10z m485 1 c0 -6 -4 -13 -10 -16 -5 -3 -10 1 -10 9 0 9 5 16 10
16 6 0 10 -4 10 -9z m-2820 -17 c0 -8 -4 -12 -10 -9 -5 3 -10 10 -10 16 0 5 5
9 10 9 6 0 10 -7 10 -16z m460 6 c0 -5 -4 -10 -10 -10 -5 0 -10 5 -10 10 0 6
5 10 10 10 6 0 10 -4 10 -10z m230 6 c0 -11 -13 -36 -19 -36 -4 0 -7 9 -7 20
0 11 6 20 13 20 7 0 13 -2 13 -4z m1560 -6 c0 -5 -5 -10 -11 -10 -5 0 -7 -5
-3 -12 4 -7 3 -8 -4 -4 -17 10 -15 36 3 36 8 0 15 -4 15 -10z m230 0 c0 -5 -7
-10 -15 -10 -8 0 -15 5 -15 10 0 6 7 10 15 10 8 0 15 -4 15 -10z m43 -7 c-4
-11 -3 -14 5 -9 18 11 14 -10 -5 -25 -14 -12 -15 -12 -9 0 5 8 3 17 -5 22 -12
8 -12 11 1 19 20 13 20 13 13 -7z m542 -21 c-10 -10 -16 -12 -13 -7 3 6 8 19
13 30 5 14 9 16 12 7 3 -8 -3 -21 -12 -30z m515 28 c0 -5 -5 -10 -11 -10 -5 0
-7 5 -4 10 3 6 8 10 11 10 2 0 4 -4 4 -10z m-3160 -4 c0 -3 -4 -8 -10 -11 -5
-3 -10 -1 -10 4 0 6 5 11 10 11 6 0 10 -2 10 -4z m-365 -26 c3 -5 1 -10 -4
-10 -6 0 -11 5 -11 10 0 6 2 10 4 10 3 0 8 -4 11 -10z m345 -11 c0 -6 -4 -7
-10 -4 -5 3 -10 11 -10 16 0 6 5 7 10 4 6 -3 10 -11 10 -16z m2090 11 c0 -5
-4 -10 -10 -10 -5 0 -10 5 -10 10 0 6 5 10 10 10 6 0 10 -4 10 -10z m290 0 c0
-5 -4 -10 -10 -10 -5 0 -10 5 -10 10 0 6 5 10 10 10 6 0 10 -4 10 -10z m-3720
-20 c0 -5 -4 -10 -10 -10 -5 0 -10 5 -10 10 0 6 5 10 10 10 6 0 10 -4 10 -10z
m3438 -25 c21 -24 21 -25 2 -25 -12 0 -20 7 -20 16 0 10 -6 14 -15 10 -15 -5
-20 5 -8 17 11 11 18 8 41 -18z m-2718 -35 c0 -5 -5 -10 -11 -10 -5 0 -7 5 -4
10 3 6 8 10 11 10 2 0 4 -4 4 -10z m-774 -65 c-9 -23 -26 -9 -26 23 0 24 1 25
16 10 10 -9 14 -24 10 -33z m1144 41 c0 -3 -4 -8 -10 -11 -5 -3 -10 -1 -10 4
0 6 5 11 10 11 6 0 10 -2 10 -4z m-775 -27 c8 -23 1 -34 -14 -24 -13 8 -15 45
-2 45 5 0 13 -9 16 -21z m4395 2 c0 -10 -7 -21 -15 -25 -15 -5 -22 24 -8 37
12 13 23 7 23 -12z m-4025 -9 c0 -18 -20 -15 -23 4 -3 10 1 15 10 12 7 -3 13
-10 13 -16z m3655 4 c0 -18 -17 -29 -30 -21 -8 5 -7 11 1 21 15 18 29 18 29 0z
m-370 -5 c0 -12 -20 -25 -27 -18 -7 7 6 27 18 27 5 0 9 -4 9 -9z m-2915 -11
c3 -5 2 -10 -4 -10 -5 0 -13 5 -16 10 -3 6 -2 10 4 10 5 0 13 -4 16 -10z
m3225 -15 c0 -8 -4 -15 -10 -15 -5 0 -10 7 -10 15 0 8 5 15 10 15 6 0 10 -7
10 -15z m-3490 -31 c0 -8 -5 -12 -10 -9 -6 4 -8 11 -5 16 9 14 15 11 15 -7z
m3431 -7 c-13 -13 -26 -3 -16 12 3 6 11 8 17 5 6 -4 6 -10 -1 -17z m-4171 -2
c0 -8 -4 -15 -10 -15 -5 0 -10 7 -10 15 0 8 5 15 10 15 6 0 10 -7 10 -15z
m370 -1 c0 -8 -4 -12 -10 -9 -5 3 -10 10 -10 16 0 5 5 9 10 9 6 0 10 -7 10
-16z m4180 7 c0 -12 -20 -25 -27 -18 -7 7 6 27 18 27 5 0 9 -4 9 -9z m-3330
-75 c0 -3 -4 -8 -10 -11 -5 -3 -10 -1 -10 4 0 6 5 11 10 11 6 0 10 -2 10 -4z
m2510 -50 c0 -3 -4 -8 -10 -11 -5 -3 -10 -1 -10 4 0 6 5 11 10 11 6 0 10 -2
10 -4z m-2905 -26 c3 -5 2 -10 -4 -10 -5 0 -13 5 -16 10 -3 6 -2 10 4 10 5 0
13 -4 16 -10z m3266 -33 c-13 -13 -26 -3 -16 12 3 6 11 8 17 5 6 -4 6 -10 -1
-17z m-3156 3 c3 -5 1 -10 -4 -10 -6 0 -11 5 -11 10 0 6 2 10 4 10 3 0 8 -4
11 -10z m-477 -19 c3 -8 -1 -12 -9 -9 -7 2 -15 10 -17 17 -3 8 1 12 9 9 7 -2
15 -10 17 -17z m3522 -11 c0 -5 -4 -10 -10 -10 -5 0 -10 5 -10 10 0 6 5 10 10
10 6 0 10 -4 10 -10z m490 -5 c0 -8 -7 -15 -15 -15 -9 0 -12 6 -9 15 4 8 10
15 15 15 5 0 9 -7 9 -15z m-2923 -38 c16 -13 22 -25 18 -38 -4 -11 -2 -19 4
-19 6 0 11 5 11 12 0 13 47 -29 62 -55 15 -28 0 -75 -25 -80 -20 -3 -20 -4 -4
-12 25 -11 49 15 51 54 1 34 19 37 24 3 2 -13 8 -19 18 -15 19 7 19 -50 0 -66
-15 -13 -32 1 -21 18 3 5 1 12 -5 16 -6 4 -10 -5 -10 -22 0 -29 33 -60 58 -55
7 2 15 -4 18 -13 3 -8 17 -15 31 -15 17 0 23 -4 20 -14 -3 -7 0 -19 6 -26 25
-27 -85 0 -152 36 -75 42 -141 119 -141 166 0 15 -5 28 -11 28 -6 0 -9 22 -6
59 5 63 17 97 25 71 3 -8 16 -23 29 -33z m-1459 9 c3 -12 -1 -17 -10 -14 -7 3
-15 13 -16 22 -3 12 1 17 10 14 7 -3 15 -13 16 -22z m3116 -31 c3 -30 2 -63
-3 -72 -5 -10 -19 -40 -32 -66 -14 -32 -38 -61 -70 -85 -67 -51 -118 -82 -135
-82 -9 0 -14 -7 -12 -17 2 -13 -5 -19 -22 -21 -24 -3 -25 -3 -5 12 19 15 19
15 -7 16 -16 0 -28 4 -28 9 0 20 13 41 25 41 7 0 18 7 25 15 7 8 21 15 31 15
11 0 19 4 19 9 0 5 8 11 19 14 15 3 18 11 13 33 -3 16 -7 22 -9 14 -12 -42
-13 -43 -28 -30 -16 13 -21 65 -6 55 11 -6 25 13 26 35 0 8 10 16 23 18 12 2
22 9 23 15 0 16 59 62 59 47 0 -7 6 -10 14 -7 20 8 25 -12 12 -45 -11 -30 -22
-36 -29 -15 -2 6 -3 3 -1 -7 2 -11 -2 -26 -8 -33 -8 -10 -7 -13 4 -13 20 0 59
30 53 41 -4 5 1 12 9 15 23 9 21 64 -2 64 -10 0 -23 5 -30 12 -9 9 -6 18 15
40 39 41 49 35 57 -27z m1201 46 c3 -5 1 -12 -5 -16 -5 -3 -10 1 -10 9 0 18 6
21 15 7z m-3835 -11 c0 -5 -4 -10 -10 -10 -5 0 -10 5 -10 10 0 6 5 10 10 10 6
0 10 -4 10 -10z m4270 -19 c0 -22 -16 -36 -24 -22 -8 12 3 41 15 41 5 0 9 -9
9 -19z m-490 -6 c0 -8 -4 -15 -10 -15 -5 0 -10 7 -10 15 0 8 5 15 10 15 6 0
10 -7 10 -15z m-4150 -31 c0 -8 -4 -12 -10 -9 -5 3 -10 10 -10 16 0 5 5 9 10
9 6 0 10 -7 10 -16z m1240 0 c0 -13 3 -14 14 -5 12 10 15 4 21 -31 4 -24 22
-72 40 -108 18 -36 35 -77 39 -93 9 -37 70 -104 118 -128 31 -16 63 -20 167
-23 135 -2 144 -5 202 -57 15 -13 32 -34 38 -46 17 -34 -2 -29 -61 13 -47 35
-53 36 -141 39 -95 4 -139 15 -235 63 -65 32 -99 64 -123 117 -16 34 -18 36
-13 10 4 -16 13 -43 20 -59 8 -16 14 -33 14 -38 0 -20 55 -124 74 -141 55 -46
146 -77 221 -73 62 3 113 -18 117 -47 2 -16 9 -21 23 -19 19 2 19 2 1 -12 -20
-17 -13 -38 12 -34 9 2 18 -5 20 -14 2 -13 -3 -18 -17 -18 -12 0 -21 -4 -21
-10 0 -5 5 -10 11 -10 5 0 7 -5 3 -11 -4 -7 -9 -8 -13 -1 -3 5 -18 10 -32 10
-21 0 -25 -4 -22 -19 4 -13 0 -19 -11 -19 -9 0 -16 6 -16 14 0 8 -13 16 -30
18 -16 3 -30 1 -30 -4 0 -4 10 -8 23 -9 22 0 22 0 1 -11 -13 -6 -37 -7 -65 -1
-50 10 -72 39 -66 91 2 27 0 31 -15 26 -12 -4 -18 -1 -16 8 2 8 -8 14 -24 16
-16 2 -28 7 -28 12 0 4 -16 15 -36 25 -27 12 -41 29 -55 63 -11 26 -24 55 -29
64 -7 13 -5 20 8 27 15 9 15 10 -5 11 -16 0 -23 8 -29 32 -3 18 -12 42 -19 53
-13 20 -24 98 -30 210 -2 34 -9 73 -14 88 -14 35 -14 47 -1 47 6 0 10 -7 10
-16z m-84 -21 c8 -31 -19 -57 -51 -49 -11 3 -54 13 -96 23 -75 17 -76 16 -118
-5 -50 -26 -52 -27 -44 -7 13 36 109 61 245 64 54 1 58 0 64 -26z m1907 -15
c-2 -24 -9 -53 -15 -65 -6 -12 -8 -29 -5 -37 7 -18 -10 -169 -23 -201 -25 -64
-30 -75 -38 -75 -5 0 -8 -16 -6 -35 1 -19 -2 -35 -7 -35 -5 0 -18 -18 -29 -40
-17 -34 -18 -40 -5 -40 20 0 19 -29 -1 -37 -8 -3 -20 -1 -27 6 -15 15 -23 14
-41 -4 -10 -10 -13 -26 -10 -43 7 -36 -19 -61 -45 -45 -20 12 -51 0 -51 -21 0
-29 -27 -48 -74 -51 -40 -3 -45 -1 -35 11 9 11 8 14 -9 14 -11 0 -27 -7 -36
-15 -18 -19 -36 -19 -36 -1 0 7 -11 16 -24 18 -18 4 -27 -1 -35 -19 -10 -23
-41 -33 -41 -13 0 6 7 10 15 10 8 0 15 5 15 10 0 6 -9 10 -20 10 -11 0 -20 5
-20 11 0 6 9 8 22 3 20 -6 21 -5 9 9 -16 20 -8 47 14 47 18 0 19 11 3 29 -11
11 -10 13 4 8 13 -5 22 2 33 24 19 36 60 54 91 41 12 -6 27 -7 35 -1 8 5 21 6
31 3 9 -2 19 0 23 6 3 5 20 10 36 10 26 0 78 27 119 62 21 18 70 112 70 135 0
10 4 23 9 28 5 6 16 30 25 55 l15 45 -20 -24 c-10 -13 -19 -28 -19 -35 -1 -6
-9 -21 -19 -33 -23 -27 -120 -93 -138 -93 -6 0 -24 -5 -40 -12 -39 -15 -45
-16 -153 -23 -91 -6 -96 -7 -147 -46 -45 -34 -53 -37 -53 -21 0 20 46 71 88
100 18 11 56 16 157 18 126 2 138 4 181 29 40 23 104 102 104 127 0 5 15 41
34 81 19 40 37 89 41 109 5 27 13 38 29 41 11 2 22 5 23 6 0 0 -1 -18 -4 -41z
m317 21 c38 -12 79 -44 68 -54 -2 -3 -22 4 -44 16 -32 16 -49 19 -94 14 -30
-4 -68 -14 -83 -22 -18 -9 -40 -12 -58 -8 -23 5 -29 12 -29 34 0 15 3 31 8 36
10 10 184 -2 232 -16z m1150 -10 c0 -5 -7 -9 -15 -9 -15 0 -20 12 -9 23 8 8
24 -1 24 -14z m-860 -39 c0 -5 -4 -10 -10 -10 -5 0 -10 5 -10 10 0 6 5 10 10
10 6 0 10 -4 10 -10z m-3193 -56 c-9 -9 -28 6 -21 18 4 6 10 6 17 -1 6 -6 8
-13 4 -17z m1080 -44 c2 -11 -2 -20 -7 -20 -6 0 -10 12 -10 27 0 29 12 24 17
-7z m1182 -16 c-17 -21 -21 -11 -8 22 10 23 13 25 16 11 3 -10 -1 -25 -8 -33z
m1301 21 c0 -8 -4 -15 -10 -15 -5 0 -10 7 -10 15 0 8 5 15 10 15 6 0 10 -7 10
-15z m-120 -26 c0 -5 -4 -9 -10 -9 -5 0 -10 7 -10 16 0 8 5 12 10 9 6 -3 10
-10 10 -16z m-3810 -25 c0 -8 -4 -12 -10 -9 -5 3 -10 13 -10 21 0 8 5 12 10 9
6 -3 10 -13 10 -21z m3136 -11 c-10 -10 -19 5 -10 18 6 11 8 11 12 0 2 -7 1
-15 -2 -18z m-2235 0 c13 -15 12 -15 -8 -4 -24 12 -29 21 -14 21 5 0 15 -7 22
-17z m51 5 c-14 -14 -16 -48 -3 -48 5 0 12 10 15 23 6 22 6 22 27 -5 11 -16
29 -28 39 -28 10 0 40 -18 65 -40 25 -22 50 -40 55 -40 13 0 43 -98 36 -117
-4 -9 -1 -20 6 -24 18 -11 8 -17 -37 -21 -38 -3 -40 -1 -43 27 -2 16 -19 47
-38 68 -19 21 -39 49 -44 63 -5 13 -16 24 -24 24 -7 0 -19 7 -27 16 -10 13
-10 17 0 24 11 6 11 9 0 16 -8 5 -21 9 -29 9 -27 0 -25 65 2 65 9 0 9 -3 0
-12z m-832 -18 c0 -5 -4 -10 -10 -10 -5 0 -10 5 -10 10 0 6 5 10 10 10 6 0 10
-4 10 -10z m2995 -30 c5 -19 4 -21 -4 -10 -9 13 -11 12 -16 -1 -3 -9 -5 -22
-3 -30 2 -7 -7 -18 -20 -24 -12 -5 -25 -19 -29 -30 -3 -11 -23 -40 -44 -66
-25 -29 -39 -55 -39 -73 0 -25 -2 -27 -29 -21 -18 4 -32 2 -36 -5 -6 -9 -10
-9 -16 1 -13 20 -11 29 6 29 18 0 20 17 3 23 -10 3 -10 9 -2 28 6 13 15 37 20
54 6 17 21 35 37 43 15 7 34 24 43 36 8 14 33 29 59 36 35 10 45 17 45 33 0
26 15 12 25 -23z m1171 -7 c-11 -11 -19 6 -11 24 8 17 8 17 12 0 3 -10 2 -21
-1 -24z m-3671 7 c3 -5 -1 -10 -9 -10 -9 0 -16 5 -16 10 0 6 4 10 9 10 6 0 13
-4 16 -10z m3560 -20 c3 -5 -1 -10 -10 -10 -9 0 -13 5 -10 10 3 6 8 10 10 10
2 0 7 -4 10 -10z m-4538 -15 c8 -22 -6 -33 -17 -15 -13 20 -12 30 0 30 6 0 13
-7 17 -15z m1823 -15 c12 -8 12 -10 -5 -9 -11 0 -29 4 -40 9 -18 8 -18 9 5 9
14 0 32 -4 40 -9z m-1700 -31 c0 -5 -4 -9 -10 -9 -5 0 -10 7 -10 16 0 8 5 12
10 9 6 -3 10 -10 10 -16z m1765 11 c7 -12 -2 -12 -30 0 -19 8 -19 9 2 9 12 1
25 -3 28 -9z m2035 0 c0 -5 -5 -10 -11 -10 -5 0 -7 5 -4 10 3 6 8 10 11 10 2
0 4 -4 4 -10z m115 1 c3 -5 1 -12 -5 -16 -5 -3 -10 1 -10 9 0 18 6 21 15 7z
m865 -56 c0 -8 -4 -15 -10 -15 -5 0 -10 7 -10 15 0 8 5 15 10 15 6 0 10 -7 10
-15z m-4273 -31 c-9 -9 -28 6 -21 18 4 6 10 6 17 -1 6 -6 8 -13 4 -17z m113 6
c0 -5 -2 -10 -4 -10 -3 0 -8 5 -11 10 -3 6 -1 10 4 10 6 0 11 -4 11 -10z
m3650 -71 c0 -5 -4 -9 -10 -9 -5 0 -10 7 -10 16 0 8 5 12 10 9 6 -3 10 -10 10
-16z m-120 1 c0 -5 -4 -10 -10 -10 -5 0 -10 5 -10 10 0 6 5 10 10 10 6 0 10
-4 10 -10z m-3997 -64 c6 -16 -2 -28 -14 -20 -12 7 -11 34 0 34 5 0 11 -6 14
-14z m627 -6 c0 -5 -4 -10 -10 -10 -5 0 -10 5 -10 10 0 6 5 10 10 10 6 0 10
-4 10 -10z m-505 -9 c3 -5 1 -12 -5 -16 -5 -3 -10 1 -10 9 0 18 6 21 15 7z
m1230 -12 c10 -15 -1 -23 -20 -15 -9 3 -13 10 -10 16 8 13 22 13 30 -1z m3115
-48 c0 -6 -4 -13 -10 -16 -5 -3 -10 1 -10 9 0 9 5 16 10 16 6 0 10 -4 10 -9z
m-120 -10 c0 -6 -4 -13 -10 -16 -5 -3 -10 1 -10 9 0 9 5 16 10 16 6 0 10 -4
10 -9z m-2893 -17 c8 -21 -13 -42 -28 -27 -13 13 -5 43 11 43 6 0 13 -7 17
-16z m2368 7 c3 -5 1 -12 -5 -16 -5 -3 -10 1 -10 9 0 18 6 21 15 7z m-1355
-11 c0 -5 -4 -10 -9 -10 -6 0 -13 5 -16 10 -3 6 1 10 9 10 9 0 16 -4 16 -10z
m-2699 -63 c-1 -12 -15 -9 -19 4 -3 6 1 10 8 8 6 -3 11 -8 11 -12z m2033 -32
c-2 -27 -46 -75 -67 -75 -8 0 -8 3 1 12 9 9 9 15 0 25 -9 12 -7 13 15 8 27 -7
39 8 15 18 -8 3 -5 6 6 6 11 1 16 6 13 15 -6 16 2 28 13 21 4 -2 6 -16 4 -30z
m-1384 15 c0 -5 -4 -10 -10 -10 -5 0 -10 5 -10 10 0 6 5 10 10 10 6 0 10 -4
10 -10z m-120 -16 c0 -8 -4 -12 -10 -9 -5 3 -10 10 -10 16 0 5 5 9 10 9 6 0
10 -7 10 -16z m2206 -43 c-4 -5 0 -11 6 -14 7 -2 10 -8 6 -12 -4 -4 -19 2 -34
14 l-27 21 27 0 c15 0 25 -4 22 -9z m-21 -33 c24 -11 34 -28 16 -28 -11 0 -59
39 -49 40 4 0 19 -5 33 -12z m-705 -7 c0 -5 -7 -11 -15 -15 -15 -5 -20 5 -8
17 9 10 23 9 23 -2z m2374 -12 c-3 -5 -10 -7 -15 -3 -5 3 -7 10 -3 15 3 5 10
7 15 3 5 -3 7 -10 3 -15z m-3547 -31 c-3 -8 -6 -5 -6 6 -1 11 2 17 5 13 3 -3
4 -12 1 -19z m1193 7 c0 -8 -7 -15 -15 -15 -8 0 -17 -11 -21 -25 -7 -30 -21
-33 -19 -5 1 20 32 60 47 60 4 0 8 -7 8 -15z m686 -3 c25 -20 38 -72 18 -72
-7 0 -15 13 -19 29 -3 16 -13 32 -21 35 -14 6 -20 26 -6 26 4 0 17 -8 28 -18z
m-624 -7 c0 -5 -5 -11 -11 -13 -6 -2 -11 4 -11 13 0 9 5 15 11 13 6 -2 11 -8
11 -13z m550 0 c0 -5 -5 -11 -11 -13 -6 -2 -11 4 -11 13 0 9 5 15 11 13 6 -2
11 -8 11 -13z m-522 -25 c0 -5 -5 -10 -11 -10 -5 0 -7 5 -4 10 3 6 8 10 11 10
2 0 4 -4 4 -10z m43 -19 c-9 -11 -20 -18 -25 -15 -12 8 11 34 28 34 11 0 10
-4 -3 -19z m401 13 c17 -7 22 -34 6 -34 -5 0 -14 9 -20 20 -12 22 -10 23 14
14z m-2244 -20 c0 -8 -5 -12 -10 -9 -6 4 -8 11 -5 16 9 14 15 11 15 -7z m-120
-10 c0 -8 -4 -12 -10 -9 -5 3 -10 10 -10 16 0 5 5 9 10 9 6 0 10 -7 10 -16z
m1898 -5 c-2 -6 -8 -10 -13 -10 -5 0 -11 4 -13 10 -2 6 4 11 13 11 9 0 15 -5
13 -11z m542 1 c0 -5 -4 -10 -10 -10 -5 0 -10 5 -10 10 0 6 5 10 10 10 6 0 10
-4 10 -10z m130 -45 c0 -12 -29 -3 -34 10 -4 13 -2 14 14 5 11 -6 20 -13 20
-15z m1290 -5 c0 -5 -2 -10 -4 -10 -3 0 -8 5 -11 10 -3 6 -1 10 4 10 6 0 11
-4 11 -10z m535 -29 c3 -5 1 -12 -5 -16 -5 -3 -10 1 -10 9 0 18 6 21 15 7z
m125 -11 c0 -5 -4 -10 -10 -10 -5 0 -10 5 -10 10 0 6 5 10 10 10 6 0 10 -4 10
-10z m-2750 -10 c0 -5 -4 -10 -10 -10 -5 0 -10 5 -10 10 0 6 5 10 10 10 6 0
10 -4 10 -10z m790 0 c0 -5 -8 -10 -17 -10 -15 0 -16 2 -3 10 19 12 20 12 20
0z m-2220 -60 c0 -5 -5 -10 -11 -10 -5 0 -7 5 -4 10 3 6 8 10 11 10 2 0 4 -4
4 -10z m2207 -12 c-3 -8 -6 -5 -6 6 -1 11 2 17 5 13 3 -3 4 -12 1 -19z m-2757
-14 c0 -8 -5 -12 -10 -9 -6 4 -8 11 -5 16 9 14 15 11 15 -7z m2365 -4 c-28
-12 -45 -12 -45 0 0 6 15 10 33 9 27 0 29 -2 12 -9z m-495 -21 c0 -5 -4 -9
-10 -9 -5 0 -10 7 -10 16 0 8 5 12 10 9 6 -3 10 -10 10 -16z m440 -9 c49 -25
57 -25 116 0 68 29 268 38 284 12 8 -12 13 -13 16 -4 6 12 34 17 34 5 0 -43
-85 -177 -120 -188 -10 -3 -21 -12 -24 -20 -6 -17 -36 -21 -36 -5 0 6 -5 10
-12 10 -9 0 -9 -3 -1 -11 6 -6 9 -18 6 -25 -4 -10 0 -12 11 -8 19 7 22 -21 4
-33 -7 -4 -18 -17 -24 -28 -7 -11 -19 -19 -28 -19 -12 1 -16 -7 -16 -31 0 -35
-39 -96 -40 -62 0 21 -10 22 -36 2 -30 -23 -34 -18 -34 35 0 28 -4 50 -10 50
-5 0 -10 -5 -10 -11 0 -8 -4 -9 -13 0 -8 6 -17 7 -21 3 -4 -4 -13 -7 -19 -7
-7 0 -13 -13 -15 -30 -5 -50 -10 -59 -27 -45 -8 7 -26 10 -41 7 -20 -3 -27 1
-35 20 -5 13 -9 35 -9 49 0 13 -3 23 -7 22 -15 -3 -43 14 -43 26 0 6 -9 18
-20 26 -25 18 -26 33 -1 25 13 -4 20 0 24 16 4 16 11 20 26 16 11 -3 21 -1 23
4 2 5 26 2 55 -6 36 -11 54 -22 58 -37 5 -14 9 -17 15 -8 4 6 18 10 31 9 13
-2 37 6 54 16 43 29 93 45 98 31 2 -7 10 -4 21 7 10 9 21 17 25 17 3 0 14 13
23 28 9 15 28 34 42 42 14 7 26 19 26 27 0 7 7 13 15 13 16 0 21 25 6 34 -4 3
-23 -6 -42 -20 l-34 -25 -8 31 c-6 25 -13 30 -37 30 -23 0 -29 -4 -29 -22 -1
-52 -3 -58 -12 -53 -5 4 -9 11 -9 16 0 12 -25 39 -35 39 -4 0 -5 -9 -2 -20 4
-15 0 -20 -14 -20 -10 0 -19 3 -19 8 -1 25 -17 32 -49 21 -25 -9 -38 -9 -57 2
-21 11 -27 11 -34 -1 -6 -8 -10 -23 -10 -32 0 -10 -5 -18 -11 -18 -6 0 -9 7
-6 14 4 11 1 13 -10 9 -13 -5 -15 -2 -10 17 4 16 3 20 -5 12 -6 -6 -17 -8 -25
-5 -12 5 -14 1 -8 -18 l7 -24 -16 22 c-9 12 -13 28 -10 36 3 9 -3 16 -16 20
-23 6 -57 -34 -45 -53 12 -19 -13 -10 -43 15 -25 21 -32 23 -41 11 -14 -17 5
-56 27 -56 8 0 35 -22 62 -50 34 -35 43 -50 31 -50 -9 0 -22 -5 -28 -11 -12
-12 -37 -3 -28 11 3 4 -6 11 -20 14 -28 7 -99 97 -109 138 -3 14 -9 33 -12 42
-4 11 -1 16 10 16 9 0 16 -4 16 -10 0 -5 7 -10 15 -10 8 0 15 6 15 14 0 24
228 13 280 -14z m575 11 c-3 -6 -11 -11 -17 -11 -6 0 -6 6 2 15 14 17 26 13
15 -4z m-709 -79 c-11 -10 -15 4 -8 28 l7 25 3 -23 c2 -13 1 -26 -2 -30z
m-282 22 c3 -8 2 -12 -4 -9 -6 3 -10 10 -10 16 0 14 7 11 14 -7z m958 -6 c-7
-7 -12 -8 -12 -2 0 14 12 26 19 19 2 -3 -1 -11 -7 -17z m-282 2 c0 -5 -5 -10
-11 -10 -5 0 -7 5 -4 10 3 6 8 10 11 10 2 0 4 -4 4 -10z m1810 -4 c0 -3 -4 -8
-10 -11 -5 -3 -10 -1 -10 4 0 6 5 11 10 11 6 0 10 -2 10 -4z m-2494 -50 c3
-33 -6 -38 -30 -15 -19 19 -19 19 0 19 18 1 18 1 1 14 -13 10 -15 15 -5 19 18
6 31 -8 34 -37z m1004 34 c0 -6 -7 -13 -15 -16 -8 -4 -12 -10 -9 -15 3 -5 10
-7 15 -4 5 4 9 2 9 -2 0 -14 -38 -34 -45 -23 -3 6 -17 7 -31 4 -37 -9 -29 8
18 39 45 29 58 33 58 17z m-965 -32 c28 -13 32 -23 11 -31 -13 -5 -46 21 -46
36 0 10 5 9 35 -5z m596 -36 c-37 -26 -80 -42 -86 -33 -8 13 88 70 100 59 7
-7 2 -16 -14 -26z m-713 -22 c-1 -27 -6 -50 -10 -50 -5 0 -5 -18 -2 -40 4 -25
3 -40 -4 -40 -6 0 -12 6 -15 13 -2 6 -8 9 -12 5 -5 -5 -1 -16 9 -27 15 -16 15
-19 1 -31 -8 -7 -15 -21 -15 -31 0 -12 -5 -16 -14 -13 -8 3 -17 1 -21 -5 -3
-6 -1 -11 4 -11 6 0 11 -5 11 -11 0 -6 -10 -8 -22 -5 -20 5 -20 5 2 -6 14 -7
28 -17 31 -22 4 -4 13 -5 20 -1 11 7 12 5 1 -6 -10 -11 -16 -11 -32 -1 -14 9
-21 9 -26 0 -4 -7 -2 -14 4 -16 7 -2 12 -10 12 -18 0 -8 -6 -11 -15 -8 -8 4
-15 17 -15 30 0 13 -4 24 -8 24 -4 0 -13 15 -20 33 -15 41 -15 47 -2 47 6 0
10 -7 10 -15 0 -8 4 -15 8 -15 4 0 7 10 7 23 -2 30 -25 87 -35 87 -10 0 -1
-38 11 -46 5 -3 9 -10 9 -16 0 -6 -8 -4 -18 5 -10 10 -21 17 -25 17 -6 0 -1
-63 9 -92 3 -12 0 -18 -9 -18 -8 0 -14 6 -13 13 0 6 -3 12 -9 12 -5 0 -9 -4
-7 -9 2 -5 -5 -5 -15 -1 -42 16 -47 17 -25 1 12 -10 20 -21 17 -26 -3 -5 -1
-11 5 -15 6 -4 8 -10 5 -15 -3 -5 -1 -11 5 -15 5 -3 10 -13 10 -22 0 -10 -9
-4 -27 16 -15 17 -31 31 -35 31 -16 0 -7 -26 17 -49 14 -13 25 -27 25 -32 0
-17 -58 33 -64 54 -3 12 -8 18 -12 15 -12 -12 7 -43 41 -68 39 -28 45 -41 15
-33 -14 4 -19 1 -17 -8 2 -8 -1 -4 -7 9 -11 25 -21 28 -32 10 -4 -6 -2 -14 4
-16 18 -6 14 -19 -8 -25 -10 -3 -21 0 -24 7 -2 6 -5 2 -5 -8 -1 -11 6 -27 15
-37 15 -17 14 -17 -22 -7 -22 5 -44 14 -50 19 -5 4 -20 6 -32 2 -17 -4 -20 -9
-12 -23 10 -19 -4 -30 -41 -30 -24 0 -24 -8 -2 -33 17 -18 17 -18 -10 -6 -33
15 -42 8 -28 -20 7 -12 17 -18 26 -15 8 4 15 1 15 -5 0 -16 -36 -13 -50 4 -7
8 -17 15 -22 15 -6 0 -5 -7 2 -15 9 -11 9 -15 1 -15 -6 0 -14 7 -17 15 -7 17
-34 21 -34 5 0 -5 5 -10 10 -10 6 0 10 -7 10 -15 0 -19 -7 -19 -27 0 -8 8 -19
13 -24 10 -9 -6 -70 22 -80 36 -9 15 -66 -8 -100 -41 -19 -17 -35 -27 -37 -21
-8 24 45 73 167 155 71 47 142 99 157 114 38 37 153 134 184 155 14 9 55 37
91 61 71 47 199 151 212 173 16 27 27 11 25 -37z m449 25 c38 -23 56 -45 36
-45 -17 0 -92 43 -97 55 -8 22 12 18 61 -10z m724 -16 c56 -51 142 -118 194
-149 59 -36 182 -132 250 -196 33 -31 78 -67 100 -82 148 -94 207 -140 226
-170 24 -42 20 -49 -11 -19 -54 50 -99 59 -140 27 -14 -11 -37 -20 -52 -20
-15 0 -32 -8 -37 -17 -10 -16 -10 -16 -11 3 0 11 5 25 12 32 9 9 8 12 -5 12
-9 0 -21 -9 -27 -20 -6 -11 -18 -20 -28 -20 -16 1 -16 1 1 11 9 5 17 14 17 20
0 5 -11 2 -25 -7 -13 -9 -30 -14 -37 -11 -9 3 -6 7 7 13 20 8 35 23 35 37 0
11 -38 9 -45 -3 -3 -6 -12 -10 -18 -9 -7 0 -2 7 11 16 33 23 27 32 -18 30 -44
-3 -47 0 -24 29 14 17 15 17 10 1 -4 -12 -2 -17 6 -15 25 9 18 27 -14 36 -21
5 -41 4 -58 -4 -32 -15 -78 -28 -64 -17 6 4 14 21 18 37 6 24 5 27 -6 18 -9
-7 -18 -8 -28 -1 -11 8 -12 12 -2 16 6 2 12 9 12 14 0 13 -28 11 -32 -2 -2 -5
-11 -7 -20 -4 -15 6 -12 11 15 37 30 28 31 30 7 23 -14 -5 -30 -15 -37 -24 -7
-9 -13 -11 -13 -6 0 6 11 23 25 39 40 46 31 64 -12 24 -28 -27 -37 -21 -19 14
8 15 11 29 8 32 -3 4 3 13 14 21 17 13 17 14 2 15 -10 0 -18 -4 -18 -10 0 -5
-4 -10 -10 -10 -5 0 -10 7 -10 16 0 11 -6 13 -19 9 -17 -5 -19 -2 -14 36 l6
41 -25 -16 c-13 -9 -27 -14 -30 -11 -3 3 -5 -6 -5 -20 0 -14 3 -25 8 -25 5 0
9 7 9 15 0 8 5 15 11 15 6 0 7 -8 2 -22 -4 -13 -7 -38 -6 -55 1 -18 -3 -33 -8
-33 -5 0 -9 4 -9 10 0 5 -6 7 -14 4 -7 -3 -13 -12 -12 -21 0 -9 -5 -18 -13
-21 -10 -3 -12 1 -8 17 4 18 2 21 -14 16 -22 -7 -25 7 -5 25 8 6 12 18 9 26
-3 8 0 14 7 14 6 0 8 5 5 11 -4 6 -10 8 -13 5 -3 -3 -11 -1 -19 5 -9 9 -13 8
-13 0 0 -6 -5 -11 -10 -11 -7 0 -7 6 0 19 9 19 9 27 -6 69 -7 18 -15 182 -10
182 2 0 23 -18 47 -41z m-1086 -28 c6 8 10 7 16 -2 7 -11 9 -10 9 4 0 16 19
25 21 10 7 -44 6 -63 -1 -63 -5 0 -12 5 -16 11 -3 6 -17 8 -30 5 -16 -4 -24
-2 -25 6 0 7 -5 4 -10 -7 -7 -15 -8 -12 -3 13 3 20 1 32 -5 32 -6 0 -11 8 -11
18 0 13 5 11 24 -11 16 -19 27 -24 31 -16z m1000 18 c-5 -15 -4 -19 4 -15 6 4
11 2 11 -4 0 -7 -7 -10 -15 -7 -8 4 -17 2 -20 -3 -4 -6 -1 -10 4 -10 14 0 14
-23 -1 -55 -6 -14 -19 -25 -30 -25 -26 0 -23 -15 4 -17 12 -1 27 6 34 15 8 10
14 12 14 5 0 -6 -4 -15 -10 -18 -5 -3 -10 -16 -10 -28 0 -17 -2 -19 -9 -8 -8
12 -12 12 -25 2 -17 -14 -22 -41 -8 -41 4 0 14 6 21 13 11 10 12 6 6 -23 -9
-44 -54 -103 -85 -110 -16 -4 -27 -16 -32 -37 -11 -41 -20 -46 -92 -48 -70 -2
-92 14 -72 50 16 29 45 46 47 28 1 -5 5 -16 10 -26 8 -14 13 -15 32 -5 12 6
27 18 33 27 17 23 -28 55 -66 47 -30 -6 -49 7 -29 20 27 16 70 13 90 -7 11
-11 24 -17 29 -14 15 9 12 25 -3 19 -8 -3 -19 2 -26 10 -11 13 -9 21 9 46 12
16 24 30 28 30 4 0 13 10 21 23 14 21 13 21 -5 7 -10 -8 -23 -21 -27 -27 -4
-7 -13 -13 -19 -13 -7 0 -6 5 2 15 9 11 9 15 1 15 -6 0 -19 -9 -28 -20 -23
-26 -28 -25 -29 5 -1 14 2 22 7 19 17 -10 31 7 18 22 -9 10 -9 14 0 14 6 0 14
-7 17 -15 7 -17 34 -21 34 -5 0 6 -4 10 -10 10 -5 0 -10 7 -10 15 0 8 -4 15
-10 15 -5 0 -10 7 -10 15 0 17 16 20 25 5 9 -14 32 -1 40 23 4 14 8 17 12 9 4
-10 8 -10 19 -1 12 9 12 14 3 20 -10 6 -10 11 0 23 14 16 36 12 26 -5 -4 -5
-1 -9 4 -9 6 0 11 8 11 18 0 14 2 15 10 2 8 -13 13 -12 32 8 28 27 31 28 23 1z
m-2645 -20 c0 -5 -4 -9 -10 -9 -5 0 -10 7 -10 16 0 8 5 12 10 9 6 -3 10 -10
10 -16z m1760 11 c0 -5 -5 -10 -11 -10 -5 0 -7 5 -4 10 3 6 8 10 11 10 2 0 4
-4 4 -10z m735 0 c3 -5 -1 -10 -10 -10 -9 0 -13 5 -10 10 3 6 8 10 10 10 2 0
7 -4 10 -10z m-347 -7 c-10 -2 -26 -2 -35 0 -10 3 -2 5 17 5 19 0 27 -2 18 -5z
m1612 -3 c0 -5 -5 -10 -11 -10 -5 0 -7 5 -4 10 3 6 8 10 11 10 2 0 4 -4 4 -10z
m-1967 -87 c-7 -3 -13 -11 -13 -18 0 -7 -6 -15 -12 -18 -7 -2 -9 -8 -5 -13 5
-5 14 -1 21 9 14 19 36 23 36 7 0 -5 -4 -10 -10 -10 -5 0 -10 -4 -10 -10 0 -5
7 -10 15 -10 8 0 15 -7 15 -15 0 -8 -3 -15 -6 -15 -3 0 -12 7 -20 15 -9 8 -19
15 -24 15 -5 0 -7 -7 -4 -15 9 -23 -2 -18 -31 12 -14 15 -25 22 -25 16 0 -7
14 -22 30 -35 17 -12 30 -27 30 -34 0 -18 27 -36 61 -40 38 -5 51 -12 43 -25
-3 -5 -20 -7 -38 -3 -24 4 -38 1 -49 -11 -10 -9 -22 -13 -29 -9 -7 4 -5 -2 5
-13 9 -11 17 -25 17 -32 0 -6 6 -11 13 -10 6 1 25 -3 40 -9 34 -15 37 -15 37
-2 0 6 -6 10 -14 10 -9 0 -14 9 -13 20 1 21 17 29 17 9 0 -8 6 -7 16 2 15 12
16 11 10 -9 -5 -13 -3 -22 3 -22 18 0 12 -30 -6 -37 -10 -4 -42 -7 -72 -7 -44
1 -57 5 -72 25 -10 13 -19 32 -19 42 0 11 -8 17 -25 17 -27 0 -68 53 -81 104
-6 25 -5 28 14 22 17 -6 19 -3 15 14 -3 11 -9 23 -14 26 -15 9 -10 32 9 37 12
4 11 5 -6 6 -26 1 -40 27 -24 43 8 8 21 9 47 1 20 -6 35 -7 35 -2 0 15 38 10
44 -7 3 -8 11 -12 17 -9 6 4 8 14 4 24 -4 10 2 8 17 -8 16 -16 19 -25 11 -28z
m-174 -53 c0 -9 -6 -4 -14 10 -19 33 -19 49 0 24 8 -10 14 -26 14 -34z m2807
13 c-10 -10 -19 5 -10 18 6 11 8 11 12 0 2 -7 1 -15 -2 -18z m-4046 -13 c0 -5
-4 -10 -10 -10 -5 0 -10 5 -10 10 0 6 5 10 10 10 6 0 10 -4 10 -10z m1185 -68
c-7 -8 -35 13 -35 26 0 13 3 12 19 -4 10 -10 17 -20 16 -22z m-1755 -2 c0 -5
-2 -10 -4 -10 -3 0 -8 5 -11 10 -3 6 -1 10 4 10 6 0 11 -4 11 -10z m2920 -10
c0 -5 -5 -10 -11 -10 -5 0 -7 5 -4 10 3 6 8 10 11 10 2 0 4 -4 4 -10z m-3036
-21 c-3 -5 -10 -7 -15 -3 -5 3 -7 10 -3 15 3 5 10 7 15 3 5 -3 7 -10 3 -15z
m3166 11 c0 -5 -7 -10 -15 -10 -8 0 -15 5 -15 10 0 6 7 10 15 10 8 0 15 -4 15
-10z m-1425 -40 c3 -5 2 -10 -4 -10 -5 0 -13 5 -16 10 -3 6 -2 10 4 10 5 0 13
-4 16 -10z m215 -21 c0 -5 -4 -9 -10 -9 -5 0 -10 7 -10 16 0 8 5 12 10 9 6 -3
10 -10 10 -16z m956 -6 c-10 -10 -19 5 -10 18 6 11 8 11 12 0 2 -7 1 -15 -2
-18z m-166 -8 c0 -8 -9 -15 -20 -15 -22 0 -27 15 -7 23 21 9 27 7 27 -8z m394
4 c-3 -6 0 -15 7 -20 7 -4 10 -11 6 -16 -5 -4 -12 -1 -16 6 -12 18 -34 3 -26
-17 3 -9 3 -13 -1 -9 -4 4 -14 1 -22 -6 -13 -10 -14 -9 -9 3 4 8 10 22 13 31
3 9 15 21 27 27 29 14 29 14 21 1z m-1384 -29 c16 -38 5 -53 -11 -16 -7 14
-16 26 -21 26 -4 0 -8 5 -8 10 0 22 28 8 40 -20z m385 20 c-3 -5 -13 -10 -21
-10 -8 0 -14 5 -14 10 0 6 9 10 21 10 11 0 17 -4 14 -10z m-116 -36 c2 -10 8
-25 13 -31 19 -24 -9 -14 -41 14 -38 34 -39 39 -3 37 18 0 28 -7 31 -20z m861
18 c0 -11 -72 -63 -78 -57 -3 3 1 11 7 19 7 8 10 20 7 25 -4 5 6 12 21 14 16
2 31 5 36 6 4 0 7 -3 7 -7z m2035 -2 c3 -5 1 -10 -4 -10 -6 0 -11 5 -11 10 0
6 2 10 4 10 3 0 8 -4 11 -10z m-2925 -60 c0 -5 -4 -10 -10 -10 -5 0 -10 5 -10
10 0 6 5 10 10 10 6 0 10 -4 10 -10z m880 0 c0 -5 -4 -10 -9 -10 -6 0 -13 5
-16 10 -3 6 1 10 9 10 9 0 16 -4 16 -10z m-815 -21 c4 -5 17 -9 28 -8 12 0 44
1 71 0 41 -1 47 -4 42 -18 -4 -10 3 -26 20 -44 24 -25 26 -32 16 -54 -7 -15
-24 -41 -38 -59 -24 -30 -30 -32 -60 -26 -24 6 -40 3 -61 -11 -32 -21 -43 -24
-43 -9 0 6 6 10 14 10 8 0 16 7 20 15 3 8 13 15 22 15 16 0 16 2 -1 20 -16 18
-16 20 -2 20 10 0 17 -4 17 -10 0 -5 5 -10 10 -10 18 0 11 18 -10 25 -26 8
-26 29 0 22 13 -3 18 -1 13 6 -4 6 2 8 18 4 13 -4 28 -7 32 -7 5 0 5 -4 2 -10
-3 -6 1 -7 9 -4 25 9 19 24 -9 24 -14 0 -25 5 -25 10 0 7 13 8 36 4 27 -5 35
-4 30 5 -11 18 -96 14 -96 -4 0 -23 -34 -18 -60 10 -25 26 -40 32 -40 15 0 -5
7 -10 15 -10 8 0 15 -4 15 -10 0 -11 -6 -12 -36 -4 -19 5 -20 9 -10 30 6 13
14 24 19 24 4 0 7 5 7 10 0 6 -7 10 -15 10 -8 0 -15 5 -15 11 0 6 7 9 15 5 8
-3 15 -1 15 4 0 13 27 13 35 -1z m195 -10 c0 -4 -7 -6 -15 -3 -8 4 -15 10 -15
15 0 4 7 6 15 3 8 -4 15 -10 15 -15z m588 11 c15 -1 14 -3 -2 -15 -12 -9 -15
-15 -7 -15 7 0 11 -6 8 -14 -3 -8 -1 -17 6 -20 8 -3 3 -12 -13 -26 -16 -15
-26 -18 -28 -10 -3 7 2 16 9 21 7 4 10 11 6 16 -4 4 -18 -5 -30 -21 -21 -26
-62 -34 -55 -11 1 6 8 9 14 7 6 -1 15 5 18 14 5 13 2 15 -11 8 -10 -4 -36 -9
-58 -11 -64 -7 -68 -10 -44 -37 19 -22 23 -23 36 -10 17 16 47 19 37 3 -4 -8
1 -9 17 -5 l24 7 -22 -20 c-25 -21 -32 -41 -8 -21 15 12 55 5 55 -11 0 -5 -4
-9 -10 -9 -5 0 -10 4 -10 10 0 5 -7 7 -15 4 -28 -11 -15 -24 25 -24 22 0 40
-3 40 -7 -1 -13 -29 -59 -30 -48 0 6 -13 18 -29 28 -21 12 -36 14 -58 8 -24
-7 -34 -5 -47 10 -9 11 -16 22 -16 25 0 2 -9 14 -20 26 -27 29 -25 56 4 79 16
12 22 26 19 38 -4 16 2 19 44 23 26 2 50 1 53 -3 3 -4 16 -1 30 7 14 7 31 11
38 9 8 -3 21 -5 30 -5z m-2428 -10 c0 -5 -4 -10 -10 -10 -5 0 -10 5 -10 10 0
6 5 10 10 10 6 0 10 -4 10 -10z m1073 -56 c-4 -11 -9 -12 -19 -3 -20 16 -17
28 5 22 12 -3 17 -11 14 -19z m767 16 c0 -5 -4 -10 -10 -10 -5 0 -10 5 -10 10
0 6 5 10 10 10 6 0 10 -4 10 -10z m1130 0 c0 -5 -8 -10 -17 -10 -15 0 -16 2
-3 10 19 12 20 12 20 0z m-690 -49 c0 -6 -4 -13 -10 -16 -5 -3 -10 1 -10 9 0
9 5 16 10 16 6 0 10 -4 10 -9z m745 -1 c-3 -5 -13 -10 -21 -10 -8 0 -12 5 -9
10 3 6 13 10 21 10 8 0 12 -4 9 -10z m-2605 -10 c0 -5 -2 -10 -4 -10 -3 0 -8
5 -11 10 -3 6 -1 10 4 10 6 0 11 -4 11 -10z m635 0 c4 -7 -3 -8 -22 -4 -38 9
-42 14 -10 14 14 0 29 -5 32 -10z m1925 0 c0 -5 -7 -10 -16 -10 -8 0 -12 5 -9
10 3 6 10 10 16 10 5 0 9 -4 9 -10z m-1373 -6 c-3 -3 -12 -4 -19 -1 -8 3 -5 6
6 6 11 1 17 -2 13 -5z m49 -29 c-4 -33 -19 -33 -23 0 -3 17 1 25 11 25 10 0
14 -9 12 -25z m731 10 c0 -18 -19 -15 -25 3 -2 7 3 12 11 12 7 0 14 -7 14 -15z
m1803 -5 c0 -5 -5 -10 -11 -10 -5 0 -7 5 -4 10 3 6 8 10 11 10 2 0 4 -4 4 -10z
m-1750 -24 c0 -3 -4 -8 -10 -11 -5 -3 -10 -1 -10 4 0 6 5 11 10 11 6 0 10 -2
10 -4z m-594 -44 c-9 -8 -26 10 -26 26 1 15 2 15 15 -2 8 -11 13 -21 11 -24z
m345 5 c-16 -16 -26 0 -10 19 9 11 15 12 17 4 2 -6 -1 -17 -7 -23z m-559 1
c-9 -9 -15 -9 -24 0 -9 9 -7 12 12 12 19 0 21 -3 12 -12z m203 -38 c6 0 20
-10 31 -22 l19 -21 -27 18 c-25 15 -28 16 -28 1 0 -9 5 -16 10 -16 6 0 10 -4
10 -10 0 -5 -8 -10 -19 -10 -17 0 -36 31 -32 54 1 5 -3 12 -10 16 -7 5 -8 13
-4 21 6 10 12 7 23 -9 8 -12 20 -22 27 -22z m400 20 c3 -5 1 -10 -4 -10 -6 0
-11 -9 -11 -20 0 -11 -4 -20 -10 -20 -5 0 -10 -7 -10 -15 0 -17 -16 -20 -25
-5 -3 6 -1 10 4 10 6 0 11 4 11 9 0 5 4 21 10 35 10 27 24 33 35 16z m-481
-28 c6 -11 -60 -9 -70 1 -4 4 9 7 29 7 20 0 38 -4 41 -8z m571 -2 c-4 -6 -14
-8 -23 -6 -10 3 -24 1 -32 -4 -13 -9 -13 -11 0 -19 9 -6 17 -6 21 0 3 5 13 7
21 4 8 -3 22 1 31 9 13 14 17 14 27 1 10 -12 8 -16 -13 -24 -14 -5 -35 -7 -47
-4 -16 4 -23 0 -27 -16 -3 -11 -12 -21 -20 -21 -13 0 -13 2 -2 17 13 15 12 16
-8 11 -29 -8 -30 9 -1 39 21 23 86 34 73 13z m-607 -75 c12 -15 22 -31 22 -36
0 -12 -17 -11 -25 1 -4 6 -15 8 -25 5 -11 -4 -20 1 -24 12 -19 55 -25 77 -20
85 5 8 17 -2 72 -67z m62 40 c0 -8 -7 -15 -16 -15 -14 0 -14 -2 -3 -16 12 -14
11 -16 -6 -13 -24 5 -32 38 -13 50 20 13 38 11 38 -6z m30 -61 c0 -17 -46 -19
-56 -3 -4 8 1 9 16 4 20 -6 21 -4 15 16 -7 21 -6 22 9 10 9 -7 16 -20 16 -27z
m544 14 c-8 -28 -3 -24 -42 -31 -28 -6 -33 -4 -30 11 3 12 12 16 31 15 33 -2
36 14 5 20 -16 3 -13 5 10 6 30 1 33 -1 26 -21z m-124 2 c0 -5 8 -10 18 -11
14 0 14 -2 -3 -9 -30 -13 -35 -12 -35 10 0 11 5 20 10 20 6 0 10 -4 10 -10z
m-50 -10 c0 -5 -5 -10 -11 -10 -5 0 -7 5 -4 10 3 6 8 10 11 10 2 0 4 -4 4 -10z
m-320 -4 c0 -3 -4 -8 -10 -11 -5 -3 -10 -1 -10 4 0 6 5 11 10 11 6 0 10 -2 10
-4z m-154 -47 c3 -5 21 -2 41 6 40 17 57 9 51 -21 -2 -11 3 -24 12 -31 13 -10
13 -12 -3 -19 -23 -9 -50 25 -35 43 8 10 6 13 -5 13 -9 0 -19 -4 -22 -10 -10
-17 -38 -11 -69 14 l-28 24 26 -5 c14 -3 29 -9 32 -14z m554 0 c0 -5 -4 -9 -9
-9 -5 0 -7 -8 -4 -19 6 -24 -25 -57 -40 -42 -8 8 -7 15 1 23 7 7 12 22 12 33
0 12 3 24 6 28 8 8 34 -3 34 -14z m83 -1 c-13 -6 -23 -15 -23 -20 0 -11 -37
-10 -45 2 -3 6 3 10 14 10 11 0 23 5 26 10 3 6 16 10 28 9 l22 0 -22 -11z
m-598 -47 c-3 -6 3 -14 12 -20 10 -5 14 -13 10 -17 -4 -4 -14 1 -22 12 -17 23
-19 34 -4 34 5 0 8 -4 4 -9z m528 -23 c-13 -12 -26 -18 -30 -14 -4 4 1 14 11
22 31 22 43 17 19 -8z m47 2 c0 -5 -7 -10 -16 -10 -8 0 -12 5 -9 10 3 6 10 10
16 10 5 0 9 -4 9 -10z m-636 -18 c2 -4 1 -14 -3 -21 -6 -9 -10 -7 -14 8 -5 20
7 29 17 13z m666 -8 c0 -8 -4 -12 -10 -9 -5 3 -10 10 -10 16 0 5 5 9 10 9 6 0
10 -7 10 -16z"/>
<path d="M2948 4553 c7 -3 16 -2 19 1 4 3 -2 6 -13 5 -11 0 -14 -3 -6 -6z"/>
<path d="M1477 3993 c-4 -3 -7 -11 -7 -17 0 -6 5 -5 12 2 6 6 9 14 7 17 -3 3
-9 2 -12 -2z"/>
<path d="M3540 3840 c0 -11 4 -20 9 -20 5 0 7 9 4 20 -3 11 -7 20 -9 20 -2 0
-4 -9 -4 -20z"/>
<path d="M3510 3792 c0 -4 14 -16 30 -25 29 -18 43 -9 18 10 -19 15 -48 23
-48 15z"/>
<path d="M1311 3591 c-6 -21 -11 -43 -11 -50 0 -15 57 -14 62 0 3 9 9 9 25 0
45 -23 58 -6 22 30 -19 19 -22 19 -37 6 -13 -12 -21 -13 -37 -4 -19 11 -18 12
10 17 l29 5 -26 17 -25 17 -12 -38z"/>
<path d="M3549 3553 c-1 -10 -1 -24 1 -32 1 -9 -7 -7 -28 7 -41 30 -70 26 -66
-9 3 -21 -2 -29 -16 -34 -24 -7 -24 -14 -7 -48 13 -24 14 -24 25 -6 7 10 23
19 36 19 38 0 56 10 57 34 1 15 3 16 6 5 3 -13 12 -16 42 -12 33 4 41 1 60
-22 25 -32 26 -32 35 14 5 27 3 32 -9 27 -10 -4 -15 1 -15 15 0 16 -4 19 -21
14 -29 -10 -79 -13 -79 -5 0 3 5 11 11 17 6 6 8 16 5 22 -11 17 -36 13 -37 -6z"/>
<path d="M3680 3540 c0 -5 5 -10 11 -10 5 0 7 5 4 10 -3 6 -8 10 -11 10 -2 0
-4 -4 -4 -10z"/>
<path d="M1450 3530 c-12 -8 -10 -10 10 -9 14 1 40 -4 58 -9 19 -6 32 -7 32
-1 0 5 -11 9 -24 9 -14 0 -28 5 -31 10 -8 13 -26 13 -45 0z"/>
<path d="M3420 3511 c0 -11 4 -21 9 -21 18 0 21 18 6 30 -13 10 -15 9 -15 -9z"/>
<path d="M3627 3346 c-32 -18 -59 -37 -59 -41 0 -9 104 -67 109 -61 4 4 15
136 11 135 -2 0 -29 -15 -61 -33z"/>
<path d="M1675 3200 c3 -5 11 -10 16 -10 6 0 7 5 4 10 -3 6 -11 10 -16 10 -6
0 -7 -4 -4 -10z"/>
<path d="M1720 3190 c0 -5 5 -10 11 -10 5 0 7 5 4 10 -3 6 -8 10 -11 10 -2 0
-4 -4 -4 -10z"/>
<path d="M3230 3189 c0 -5 5 -7 10 -4 6 3 10 8 10 11 0 2 -4 4 -10 4 -5 0 -10
-5 -10 -11z"/>
<path d="M1630 3169 c0 -15 87 -109 102 -109 4 0 8 5 8 10 0 6 -7 10 -15 10
-8 0 -20 10 -26 23 -19 35 -69 83 -69 66z"/>
<path d="M1780 3150 c0 -5 5 -10 10 -10 6 0 10 5 10 10 0 6 -4 10 -10 10 -5 0
-10 -4 -10 -10z"/>
<path d="M3170 3150 c0 -5 5 -10 11 -10 5 0 7 5 4 10 -3 6 -8 10 -11 10 -2 0
-4 -4 -4 -10z"/>
<path d="M3061 3134 c0 -11 3 -14 6 -6 3 7 2 16 -1 19 -3 4 -6 -2 -5 -13z"/>
<path d="M3292 3138 c-19 -19 -14 -30 8 -18 11 6 20 15 20 20 0 14 -14 12 -28
-2z"/>
<path d="M1750 3115 c0 -14 4 -25 9 -25 5 0 8 11 7 25 -1 33 -16 33 -16 0z"/>
<path d="M3206 3118 c-8 -32 -7 -68 2 -68 4 0 8 20 9 45 2 50 -2 57 -11 23z"/>
<path d="M1871 3104 c0 -11 3 -14 6 -6 3 7 2 16 -1 19 -3 4 -6 -2 -5 -13z"/>
<path d="M1806 3070 c8 -43 14 -51 14 -19 0 13 -5 31 -10 39 -7 11 -8 5 -4
-20z"/>
<path d="M3248 3083 c-21 -5 -24 -23 -4 -23 8 0 16 7 20 15 3 8 4 14 3 14 -1
-1 -10 -3 -19 -6z"/>
<path d="M1756 3071 c-4 -7 -5 -15 -2 -18 9 -9 19 4 14 18 -4 11 -6 11 -12 0z"/>
<path d="M1872 3065 c0 -11 4 -31 8 -45 l8 -25 0 25 c0 14 -3 34 -8 45 l-9 20
1 -20z"/>
<path d="M3152 3050 c0 -14 2 -19 5 -12 2 6 2 18 0 25 -3 6 -5 1 -5 -13z"/>
<path d="M1777 3029 c-7 -28 -6 -31 12 -20 9 6 10 14 4 26 -9 15 -11 15 -16
-6z"/>
<path d="M3051 3034 c0 -11 3 -14 6 -6 3 7 2 16 -1 19 -3 4 -6 -2 -5 -13z"/>
<path d="M3175 3037 c-8 -19 -2 -31 13 -26 5 2 6 13 2 24 -7 19 -8 19 -15 2z"/>
<path d="M1710 3020 c0 -5 7 -10 15 -10 8 0 15 5 15 10 0 6 -7 10 -15 10 -8 0
-15 -4 -15 -10z"/>
<path d="M3230 3020 c0 -5 7 -10 15 -10 8 0 15 5 15 10 0 6 -7 10 -15 10 -8 0
-15 -4 -15 -10z"/>
<path d="M3135 3000 c-3 -5 -1 -10 4 -10 6 0 11 5 11 10 0 6 -2 10 -4 10 -3 0
-8 -4 -11 -10z"/>
<path d="M3045 2989 c-4 -6 -5 -12 -2 -15 2 -3 7 2 10 11 7 17 1 20 -8 4z"/>
<path d="M1780 2982 c0 -5 7 -13 16 -16 10 -4 14 -1 12 6 -5 15 -28 23 -28 10z"/>
<path d="M1897 2955 c9 -19 18 -33 20 -31 6 6 -19 66 -28 66 -5 0 -1 -16 8
-35z"/>
<path d="M3077 2983 c-4 -3 -7 -11 -7 -17 0 -6 5 -5 12 2 6 6 9 14 7 17 -3 3
-9 2 -12 -2z"/>
<path d="M3165 2980 c-3 -5 1 -10 9 -10 8 0 18 5 21 10 3 6 -1 10 -9 10 -8 0
-18 -4 -21 -10z"/>
<path d="M1767 2940 c-3 -13 1 -24 13 -30 26 -14 40 -12 34 4 -3 9 -12 12 -21
9 -13 -5 -15 -2 -11 15 4 12 3 22 -2 22 -4 0 -10 -9 -13 -20z"/>
<path d="M3127 2943 c-7 -27 -20 -76 -23 -90 -1 -7 2 -15 6 -18 5 -3 12 16 15
42 4 27 9 56 12 66 2 9 2 17 -1 17 -2 0 -7 -8 -9 -17z"/>
<path d="M1940 2926 c0 -2 7 -9 15 -16 13 -11 14 -10 9 4 -5 14 -24 23 -24 12z"/>
<path d="M3160 2913 c0 -17 12 -16 35 1 19 13 18 14 -8 13 -15 -1 -27 -8 -27
-14z"/>
<path d="M1838 2908 c-3 -7 0 -26 7 -42 9 -22 13 -25 18 -12 3 8 0 27 -7 41
-9 16 -15 21 -18 13z"/>
<path d="M3016 2903 c-6 -14 -5 -15 5 -6 7 7 10 15 7 18 -3 3 -9 -2 -12 -12z"/>
<path d="M3190 2893 c0 -7 -9 -13 -20 -13 -11 0 -20 -5 -20 -11 0 -6 9 -9 20
-6 11 3 20 1 20 -4 0 -5 -7 -10 -15 -10 -31 -3 -35 -4 -35 -14 0 -5 14 -10 31
-10 38 0 56 32 34 62 -9 10 -14 13 -15 6z"/>
<path d="M1935 2870 c8 -26 43 -80 52 -80 4 0 -44 88 -55 100 -2 3 -1 -6 3
-20z"/>
<path d="M3055 2870 c-4 -12 -5 -24 -2 -27 3 -2 8 5 12 17 4 12 5 24 2 27 -3
2 -8 -5 -12 -17z"/>
<path d="M1901 2875 c1 -19 18 -51 18 -35 0 8 -4 22 -9 30 -5 8 -9 11 -9 5z"/>
<path d="M3023 2865 c-3 -9 -3 -18 -1 -21 3 -3 8 4 11 16 6 23 -1 27 -10 5z"/>
<path d="M1515 2840 c3 -5 10 -10 16 -10 5 0 9 5 9 10 0 6 -7 10 -16 10 -8 0
-12 -4 -9 -10z"/>
<path d="M3440 2840 c0 -5 5 -10 10 -10 6 0 10 5 10 10 0 6 -4 10 -10 10 -5 0
-10 -4 -10 -10z"/>
<path d="M1996 2825 c4 -8 8 -15 10 -15 2 0 4 7 4 15 0 8 -4 15 -10 15 -5 0
-7 -7 -4 -15z"/>
<path d="M2050 2825 c0 -8 2 -15 4 -15 2 0 6 7 10 15 3 8 1 15 -4 15 -6 0 -10
-7 -10 -15z"/>
<path d="M2303 2833 c15 -2 39 -2 55 0 15 2 2 4 -28 4 -30 0 -43 -2 -27 -4z"/>
<path d="M2618 2833 c12 -2 30 -2 40 0 9 3 -1 5 -23 4 -22 0 -30 -2 -17 -4z"/>
<path d="M1867 2793 c4 -15 8 -54 8 -86 0 -33 4 -56 10 -54 19 7 7 158 -14
165 -8 3 -10 -4 -4 -25z"/>
<path d="M3089 2818 c-7 -32 -7 -68 0 -64 12 8 20 55 10 62 -5 3 -9 4 -10 2z"/>
<path d="M3421 2810 c0 -8 4 -24 9 -35 l9 -20 0 20 c0 11 -4 27 -9 35 -9 13
-10 13 -9 0z"/>
<path d="M1587 2804 c-3 -4 1 -13 9 -21 18 -18 27 -13 18 11 -6 17 -16 20 -27
10z"/>
<path d="M1809 2802 c-35 -3 -37 -5 -30 -29 7 -27 31 -44 31 -23 0 6 5 8 12 4
8 -5 9 -2 5 9 -3 9 -2 19 3 22 4 3 11 -9 15 -26 4 -17 9 -29 11 -26 2 2 1 19
-3 38 -8 32 -10 34 -44 31z"/>
<path d="M3120 2794 c0 -11 -3 -30 -6 -44 -5 -21 -4 -22 6 -7 9 14 15 15 32 6
22 -12 32 -5 43 29 5 19 3 22 -19 22 -13 0 -31 3 -40 6 -11 4 -16 0 -16 -12z
m25 -14 c3 -5 1 -10 -4 -10 -6 0 -11 5 -11 10 0 6 2 10 4 10 3 0 8 -4 11 -10z"/>
<path d="M3366 2801 c-4 -6 -13 -8 -21 -4 -8 3 -15 -1 -15 -8 0 -7 3 -9 7 -6
3 4 12 2 18 -3 9 -8 15 -6 19 6 7 19 1 30 -8 15z"/>
<path d="M1527 2785 c-4 -8 -2 -17 3 -20 6 -4 10 3 10 14 0 25 -6 27 -13 6z"/>
<path d="M2021 2795 c0 -14 28 -50 34 -43 3 3 -3 16 -14 29 -11 13 -20 20 -20
14z"/>
<path d="M2070 2791 c0 -5 5 -13 10 -16 6 -3 10 -2 10 4 0 5 -4 13 -10 16 -5
3 -10 2 -10 -4z"/>
<path d="M2939 2768 c-13 -18 -28 -36 -34 -40 -6 -5 -6 -8 2 -8 7 0 20 12 30
28 10 15 22 30 27 34 6 4 8 10 4 13 -3 3 -16 -9 -29 -27z"/>
<path d="M1740 2780 c0 -5 -6 -10 -14 -10 -14 0 -31 -29 -21 -38 2 -3 11 0 18
6 19 16 27 5 28 -37 0 -32 1 -33 9 -13 14 33 25 27 37 -20 10 -36 9 -46 -4
-60 -15 -17 -14 -18 6 -18 47 0 48 87 0 122 -15 12 -31 34 -34 50 -6 26 -25
40 -25 18z"/>
<path d="M3211 2763 c-7 -17 -25 -40 -40 -51 -33 -24 -45 -60 -31 -96 10 -28
40 -36 40 -11 0 8 -5 15 -11 15 -6 0 -8 7 -5 16 3 8 2 12 -4 9 -6 -3 -10 -2
-10 4 0 5 8 12 19 16 10 3 18 13 17 23 0 9 6 17 14 17 8 0 19 10 25 22 9 17
14 20 23 11 6 -6 14 -9 17 -6 9 9 -6 38 -20 38 -7 0 -15 5 -17 12 -2 6 -10 -2
-17 -19z"/>
<path d="M1940 2765 c0 -8 5 -15 10 -15 6 0 10 7 10 15 0 8 -4 15 -10 15 -5 0
-10 -7 -10 -15z"/>
<path d="M2110 2770 c0 -5 5 -10 11 -10 5 0 7 5 4 10 -3 6 -8 10 -11 10 -2 0
-4 -4 -4 -10z"/>
<path d="M2845 2770 c-3 -5 -1 -10 4 -10 6 0 11 5 11 10 0 6 -2 10 -4 10 -3 0
-8 -4 -11 -10z"/>
<path d="M3005 2771 c-6 -11 9 -23 19 -14 9 9 7 23 -3 23 -6 0 -12 -4 -16 -9z"/>
<path d="M2000 2758 c0 -9 5 -20 11 -23 17 -11 18 -2 3 19 -12 17 -14 17 -14
4z"/>
<path d="M2960 2745 c-7 -9 -8 -15 -2 -15 5 0 12 7 16 15 3 8 4 15 2 15 -2 0
-9 -7 -16 -15z"/>
<path d="M1500 2736 c0 -8 5 -18 10 -21 6 -3 10 1 10 9 0 8 -4 18 -10 21 -5 3
-10 -1 -10 -9z"/>
<path d="M3395 2730 c-10 -11 -14 -20 -9 -20 5 0 15 9 22 20 7 11 11 20 9 20
-2 0 -12 -9 -22 -20z"/>
<path d="M1470 2731 c0 -6 5 -13 10 -16 6 -3 10 1 10 9 0 9 -4 16 -10 16 -5 0
-10 -4 -10 -9z"/>
<path d="M1567 2724 c3 -7 9 -14 14 -14 14 0 10 17 -5 23 -10 4 -13 1 -9 -9z"/>
<path d="M1820 2730 c0 -5 5 -10 11 -10 5 0 7 5 4 10 -3 6 -8 10 -11 10 -2 0
-4 -4 -4 -10z"/>
<path d="M3067 2713 c-6 -31 0 -50 16 -56 8 -3 11 9 8 39 -3 49 -16 58 -24 17z"/>
<path d="M3135 2730 c-3 -5 -1 -10 4 -10 6 0 11 5 11 10 0 6 -2 10 -4 10 -3 0
-8 -4 -11 -10z"/>
<path d="M1640 2709 c0 -11 5 -17 10 -14 6 3 10 13 10 21 0 8 -4 14 -10 14 -5
0 -10 -9 -10 -21z"/>
<path d="M3310 2715 c0 -8 4 -15 9 -15 5 0 11 7 15 15 3 9 0 15 -9 15 -8 0
-15 -7 -15 -15z"/>
<path d="M1687 2713 c-4 -3 -7 -11 -7 -17 0 -6 5 -5 12 2 6 6 9 14 7 17 -3 3
-9 2 -12 -2z"/>
<path d="M1710 2711 c0 -6 5 -13 10 -16 6 -3 10 1 10 9 0 9 -4 16 -10 16 -5 0
-10 -4 -10 -9z"/>
<path d="M1940 2706 c0 -9 5 -16 10 -16 6 0 10 4 10 9 0 6 -4 13 -10 16 -5 3
-10 -1 -10 -9z"/>
<path d="M2840 2709 c0 -5 5 -7 10 -4 6 3 10 8 10 11 0 2 -4 4 -10 4 -5 0 -10
-5 -10 -11z"/>
<path d="M3008 2680 c-2 -25 0 -39 7 -37 13 4 19 77 7 77 -6 0 -12 -18 -14
-40z"/>
<path d="M3240 2704 c0 -8 5 -12 10 -9 6 3 10 10 10 16 0 5 -4 9 -10 9 -5 0
-10 -7 -10 -16z"/>
<path d="M3270 2710 c0 -5 5 -10 11 -10 5 0 7 5 4 10 -3 6 -8 10 -11 10 -2 0
-4 -4 -4 -10z"/>
<path d="M1836 2701 c-3 -5 1 -14 9 -21 12 -10 15 -10 15 3 0 19 -16 31 -24
18z"/>
<path d="M2248 2703 c12 -2 32 -2 45 0 12 2 2 4 -23 4 -25 0 -35 -2 -22 -4z"/>
<path d="M2398 2703 c6 -2 18 -2 25 0 6 3 1 5 -13 5 -14 0 -19 -2 -12 -5z"/>
<path d="M2510 2706 c0 -9 50 -12 62 -5 8 6 -1 9 -24 9 -21 0 -38 -2 -38 -4z"/>
<path d="M2698 2703 c12 -2 30 -2 40 0 9 3 -1 5 -23 4 -22 0 -30 -2 -17 -4z"/>
<path d="M1980 2691 c0 -6 5 -13 10 -16 6 -3 10 1 10 9 0 9 -4 16 -10 16 -5 0
-10 -4 -10 -9z"/>
<path d="M2860 2685 c-8 -9 -8 -15 -2 -15 12 0 26 19 19 26 -2 2 -10 -2 -17
-11z"/>
<path d="M2970 2684 c0 -8 5 -12 10 -9 6 3 10 10 10 16 0 5 -4 9 -10 9 -5 0
-10 -7 -10 -16z"/>
<path d="M3110 2684 c0 -8 5 -12 10 -9 6 3 10 10 10 16 0 5 -4 9 -10 9 -5 0
-10 -7 -10 -16z"/>
<path d="M1600 2680 c0 -5 5 -10 10 -10 6 0 10 5 10 10 0 6 -4 10 -10 10 -5 0
-10 -4 -10 -10z"/>
<path d="M2035 2680 c3 -5 11 -10 16 -10 6 0 7 5 4 10 -3 6 -11 10 -16 10 -6
0 -7 -4 -4 -10z"/>
<path d="M2076 2680 c6 -8 13 -22 16 -30 3 -9 7 -10 11 -3 4 6 -3 19 -16 29
-12 11 -17 12 -11 4z"/>
<path d="M2905 2680 c-3 -5 1 -10 9 -10 8 0 18 5 21 10 3 6 -1 10 -9 10 -8 0
-18 -4 -21 -10z"/>
<path d="M3210 2679 c0 -5 5 -7 10 -4 6 3 10 8 10 11 0 2 -4 4 -10 4 -5 0 -10
-5 -10 -11z"/>
<path d="M3350 2680 c0 -5 5 -10 10 -10 6 0 10 5 10 10 0 6 -4 10 -10 10 -5 0
-10 -4 -10 -10z"/>
<path d="M1940 2666 c0 -8 5 -18 10 -21 6 -3 10 3 10 14 0 12 -4 21 -10 21 -5
0 -10 -6 -10 -14z"/>
<path d="M1540 2646 c0 -9 5 -16 10 -16 6 0 10 4 10 9 0 6 -4 13 -10 16 -5 3
-10 -1 -10 -9z"/>
<path d="M2867 2653 c-3 -5 -1 -17 4 -28 7 -17 8 -17 8 8 1 27 -4 34 -12 20z"/>
<path d="M1977 2626 c3 -15 1 -26 -5 -26 -6 0 -16 -10 -22 -22 -10 -21 -10
-21 3 -6 8 10 17 15 20 12 3 -4 9 6 13 21 3 14 2 31 -3 36 -7 7 -9 2 -6 -15z"/>
<path d="M2805 2640 c-3 -6 1 -7 9 -4 18 7 21 14 7 14 -6 0 -13 -4 -16 -10z"/>
<path d="M1848 2615 c-4 -21 -2 -24 12 -20 10 3 21 1 25 -5 4 -6 -5 -10 -22
-11 l-28 -1 30 -7 c26 -6 31 -3 37 18 8 26 2 44 -12 36 -5 -3 -11 -1 -15 5
-11 17 -22 11 -27 -15z"/>
<path d="M2980 2624 c0 -10 5 -26 10 -34 8 -11 9 -7 4 15 -8 37 -14 45 -14 19z"/>
<path d="M3083 2620 c-31 -28 -20 -58 19 -52 21 3 26 7 17 13 -8 5 -9 9 -3 9
7 0 9 11 6 25 -5 30 -12 31 -39 5z"/>
<path d="M2901 2614 c0 -11 3 -14 6 -6 3 7 2 16 -1 19 -3 4 -6 -2 -5 -13z"/>
<path d="M3375 2620 c3 -5 8 -10 11 -10 2 0 4 5 4 10 0 6 -5 10 -11 10 -5 0
-7 -4 -4 -10z"/>
<path d="M2055 2610 c3 -5 8 -10 11 -10 2 0 4 5 4 10 0 6 -5 10 -11 10 -5 0
-7 -4 -4 -10z"/>
<path d="M3205 2600 c-3 -5 -1 -10 4 -10 6 0 11 5 11 10 0 6 -2 10 -4 10 -3 0
-8 -4 -11 -10z"/>
<path d="M2195 2590 c3 -5 11 -10 16 -10 6 0 7 5 4 10 -3 6 -11 10 -16 10 -6
0 -7 -4 -4 -10z"/>
<path d="M2368 2573 c7 -3 16 -2 19 1 4 3 -2 6 -13 5 -11 0 -14 -3 -6 -6z"/>
<path d="M2578 2573 c7 -3 16 -2 19 1 4 3 -2 6 -13 5 -11 0 -14 -3 -6 -6z"/>
<path d="M1592 2550 c7 -11 17 -20 22 -20 4 0 3 6 -3 13 -6 8 -8 17 -4 20 3 4
-1 7 -10 7 -15 0 -15 -3 -5 -20z"/>
<path d="M2284 2555 c11 -8 31 -15 45 -14 24 0 23 2 -9 14 -46 18 -59 18 -36
0z"/>
<path d="M2645 2559 c-19 -9 -18 -9 3 -5 15 3 22 -1 22 -12 0 -18 13 -8 16 13
3 17 -11 18 -41 4z"/>
<path d="M3365 2560 c3 -5 8 -10 11 -10 2 0 4 5 4 10 0 6 -5 10 -11 10 -5 0
-7 -4 -4 -10z"/>
<path d="M2991 2544 c0 -11 3 -14 6 -6 3 7 2 16 -1 19 -3 4 -6 -2 -5 -13z"/>
<path d="M1853 2533 c9 -2 25 -2 35 0 9 3 1 5 -18 5 -19 0 -27 -2 -17 -5z"/>
<path d="M3083 2533 c9 -2 25 -2 35 0 9 3 1 5 -18 5 -19 0 -27 -2 -17 -5z"/>
<path d="M2140 2509 c0 -5 5 -7 10 -4 6 3 10 8 10 11 0 2 -4 4 -10 4 -5 0 -10
-5 -10 -11z"/>
<path d="M2815 2510 c4 -6 11 -8 16 -5 14 9 11 15 -7 15 -8 0 -12 -5 -9 -10z"/>
<path d="M1995 2490 c3 -5 11 -10 16 -10 6 0 7 5 4 10 -3 6 -11 10 -16 10 -6
0 -7 -4 -4 -10z"/>
<path d="M2950 2490 c0 -5 4 -10 9 -10 6 0 13 5 16 10 3 6 -1 10 -9 10 -9 0
-16 -4 -16 -10z"/>
<path d="M2441 2393 c-41 -62 -68 -122 -44 -98 30 31 83 104 83 114 0 44 95
-52 135 -137 14 -29 25 -56 25 -61 0 -5 7 -15 16 -22 15 -12 16 -10 9 21 -4
19 -13 42 -19 50 -7 8 -20 34 -30 57 -10 23 -29 52 -42 64 -13 12 -24 28 -24
34 0 16 -33 45 -51 45 -8 0 -34 -30 -58 -67z"/>
<path d="M2070 2443 c0 -14 19 -38 25 -32 8 8 -5 39 -16 39 -5 0 -9 -3 -9 -7z"/>
<path d="M2876 2434 c-9 -24 -7 -27 9 -10 17 17 19 26 6 26 -5 0 -12 -7 -15
-16z"/>
<path d="M2040 2430 c0 -5 5 -10 10 -10 6 0 10 5 10 10 0 6 -4 10 -10 10 -5 0
-10 -4 -10 -10z"/>
<path d="M2760 2315 c-17 -10 -20 -14 -9 -15 9 0 22 7 29 15 15 18 12 18 -20
0z"/>
<path d="M2480 2300 c-11 -7 -6 -10 20 -10 26 0 31 3 20 10 -8 5 -17 10 -20
10 -3 0 -12 -5 -20 -10z"/>
<path d="M2705 2279 c-11 -17 1 -21 15 -4 8 9 8 15 2 15 -6 0 -14 -5 -17 -11z"/>
<path d="M2360 2260 c0 -5 -6 -10 -12 -10 -7 0 -22 -20 -32 -43 -11 -23 -22
-44 -25 -47 -31 -25 -51 -92 -32 -104 15 -10 101 -14 107 -5 3 5 -7 9 -21 9
-34 0 -65 17 -65 35 0 17 44 98 78 143 13 17 19 32 13 32 -6 0 -11 -4 -11 -10z"/>
<path d="M2428 2234 c-29 -15 -39 -38 -13 -28 8 4 15 1 15 -5 0 -6 9 -2 21 10
16 16 28 20 52 15 19 -4 27 -3 22 2 -19 18 -70 20 -97 6z"/>
<path d="M2470 2191 c0 -6 5 -13 10 -16 6 -3 10 1 10 9 0 9 -4 16 -10 16 -5 0
-10 -4 -10 -9z"/>
<path d="M2509 2144 c-9 -11 -23 -14 -48 -10 -31 5 -33 4 -14 -5 13 -7 37 -9
60 -4 21 4 32 10 25 12 -6 3 -10 9 -6 14 9 15 -3 10 -17 -7z"/>
<path d="M2503 2043 c15 -2 39 -2 55 0 15 2 2 4 -28 4 -30 0 -43 -2 -27 -4z"/>
<path d="M2210 1939 c7 -11 14 -19 16 -16 7 7 -7 37 -17 37 -6 0 -5 -9 1 -21z"/>
<path d="M2620 1619 c0 -5 5 -7 10 -4 6 3 10 8 10 11 0 2 -4 4 -10 4 -5 0 -10
-5 -10 -11z"/>
<path d="M2670 1611 c0 -5 7 -12 16 -15 14 -5 15 -4 4 9 -14 17 -20 19 -20 6z"/>
<path d="M2350 1490 c-12 -23 -5 -26 16 -6 8 9 10 17 5 21 -6 3 -15 -4 -21
-15z"/>
<path d="M2608 1482 c9 -10 19 -17 21 -16 6 5 -20 34 -30 34 -5 0 -1 -8 9 -18z"/>
<path d="M2560 1470 c-12 -8 -11 -10 8 -10 12 0 22 5 22 10 0 13 -11 13 -30 0z"/>
<path d="M2440 1416 c0 -14 5 -26 10 -26 6 0 10 9 10 19 0 11 -4 23 -10 26 -6
4 -10 -5 -10 -19z"/>
<path d="M2510 1423 c0 -10 4 -25 10 -33 6 -10 9 -5 8 18 -1 33 -18 47 -18 15z"/>
<path d="M2558 1357 c-3 -19 -2 -25 4 -19 6 6 8 18 6 28 -3 14 -5 12 -10 -9z"/>
<path d="M1650 2306 c0 -13 7 -29 15 -36 8 -7 15 -17 15 -23 0 -13 31 -36 49
-37 11 0 11 3 0 16 -11 14 -11 18 3 28 13 9 13 13 2 24 -12 11 -14 9 -14 -8 0
-36 -18 -21 -25 20 -5 30 -11 40 -26 40 -13 0 -19 -7 -19 -24z"/>
<path d="M3160 2253 c1 -5 7 -30 14 -57 11 -42 14 -46 19 -25 7 25 -11 89 -25
89 -4 0 -8 -3 -8 -7z"/>
<path d="M3210 2190 c0 -5 5 -10 10 -10 6 0 10 5 10 10 0 6 -4 10 -10 10 -5 0
-10 -4 -10 -10z"/>
<path d="M1430 2290 c0 -5 7 -10 15 -10 8 0 15 5 15 10 0 6 -7 10 -15 10 -8 0
-15 -4 -15 -10z"/>
<path d="M3100 1690 c-12 -8 -10 -10 8 -10 13 0 20 4 17 10 -7 12 -6 12 -25 0z"/>
<path d="M3520 2290 c0 -5 5 -10 10 -10 6 0 10 5 10 10 0 6 -4 10 -10 10 -5 0
-10 -4 -10 -10z"/>
<path d="M2730 1155 c0 -8 2 -15 4 -15 2 0 6 7 10 15 3 8 1 15 -4 15 -6 0 -10
-7 -10 -15z"/>
<path d="M2310 901 c0 -6 5 -13 10 -16 6 -3 10 1 10 9 0 9 -4 16 -10 16 -5 0
-10 -4 -10 -9z"/>
<path d="M2645 899 c-10 -15 3 -25 16 -12 7 7 7 13 1 17 -6 3 -14 1 -17 -5z"/>
<path d="M1854 849 c-3 -6 -1 -16 5 -22 8 -8 11 -5 11 11 0 24 -5 28 -16 11z"/>
<path d="M1690 799 c0 -5 5 -7 10 -4 6 3 10 8 10 11 0 2 -4 4 -10 4 -5 0 -10
-5 -10 -11z"/>
<path d="M1587 773 c-4 -3 -7 -11 -7 -17 0 -6 5 -5 12 2 6 6 9 14 7 17 -3 3
-9 2 -12 -2z"/>
<path d="M1640 740 c0 -5 5 -10 10 -10 6 0 10 5 10 10 0 6 -4 10 -10 10 -5 0
-10 -4 -10 -10z"/>
<path d="M1580 720 c0 -5 5 -10 11 -10 5 0 7 5 4 10 -3 6 -8 10 -11 10 -2 0
-4 -4 -4 -10z"/>
<path d="M1430 631 c0 -6 5 -13 10 -16 6 -3 10 1 10 9 0 9 -4 16 -10 16 -5 0
-10 -4 -10 -9z"/>
<path d="M1477 610 c-3 -11 -1 -18 3 -15 5 3 10 -1 13 -7 2 -7 8 -10 12 -6 4
4 0 16 -8 28 -14 21 -14 21 -20 0z"/>
<path d="M1430 578 c0 -15 5 -30 10 -33 13 -8 13 25 0 45 -8 12 -10 9 -10 -12z"/>
<path d="M1575 560 c3 -5 8 -10 11 -10 2 0 4 5 4 10 0 6 -5 10 -11 10 -5 0 -7
-4 -4 -10z"/>
<path d="M1276 526 c-32 -22 -43 -35 -33 -39 17 -6 31 3 40 26 3 9 12 17 18
17 8 0 8 -4 2 -12 -19 -24 -22 -58 -6 -58 8 0 11 5 8 10 -9 15 4 30 21 23 8
-3 12 -13 9 -22 -4 -12 2 -16 27 -17 27 -1 29 0 15 11 -18 13 -23 35 -9 35 4
0 13 -5 19 -11 7 -7 12 -6 16 5 4 10 1 13 -7 10 -8 -3 -17 0 -21 6 -6 9 -10 9
-16 -1 -7 -12 -11 -11 -25 3 -14 14 -15 20 -4 32 21 26 -4 18 -54 -18z"/>
<path d="M1470 536 c0 -8 5 -18 10 -21 6 -3 10 1 10 9 0 8 -4 18 -10 21 -5 3
-10 -1 -10 -9z"/>
<path d="M3085 980 c3 -5 8 -10 11 -10 2 0 4 5 4 10 0 6 -5 10 -11 10 -5 0 -7
-4 -4 -10z"/>
<path d="M3187 894 c-4 -4 -7 -14 -7 -23 0 -11 3 -12 11 -4 6 6 10 16 7 23 -2
6 -7 8 -11 4z"/>
<path d="M3097 836 c-4 -10 -1 -13 9 -9 7 3 14 9 14 14 0 14 -17 10 -23 -5z"/>
<path d="M3380 747 c0 -20 4 -37 10 -37 5 0 7 14 5 31 -6 45 -15 49 -15 6z"/>
<path d="M3336 704 c-4 -9 -4 -19 -1 -22 2 -3 7 3 11 12 4 9 4 19 1 22 -2 3
-7 -3 -11 -12z"/>
<path d="M3531 600 c0 -43 2 -51 10 -37 7 12 8 30 1 55 -10 37 -10 37 -11 -18z"/>
<path d="M3482 608 c-17 -17 -15 -33 2 -19 11 9 15 9 19 -1 4 -9 6 -7 6 4 1
22 -13 30 -27 16z"/>
<path d="M3645 520 c-14 -16 -20 -17 -27 -8 -6 10 -10 10 -17 -1 -5 -7 -14
-10 -20 -7 -6 4 -11 3 -11 -3 0 -15 18 -23 25 -11 4 6 11 8 16 4 6 -4 3 -14
-7 -25 -17 -19 -16 -19 7 -17 17 2 29 14 42 41 15 32 21 36 33 26 8 -6 14 -18
14 -25 0 -16 18 -18 38 -5 10 6 10 10 -3 21 -8 7 -15 9 -15 6 0 -4 -7 0 -16 8
-21 21 -37 20 -59 -4z"/>
<path d="M3670 470 c-12 -8 -10 -10 8 -10 13 0 20 4 17 10 -7 12 -6 12 -25 0z"/>
<path d="M2926 945 c-11 -8 -15 -15 -9 -15 19 0 43 12 43 21 0 13 -12 11 -34
-6z"/>
<path d="M2905 890 c-3 -5 1 -10 9 -10 8 0 18 5 21 10 3 6 -1 10 -9 10 -8 0
-18 -4 -21 -10z"/>
<path d="M2910 819 c0 -5 5 -7 10 -4 6 3 10 8 10 11 0 2 -4 4 -10 4 -5 0 -10
-5 -10 -11z"/>
<path d="M2891 726 c-12 -12 -21 -25 -21 -28 0 -13 51 6 60 22 15 28 -14 32
-39 6z"/>
<path d="M2730 630 c0 -5 5 -10 10 -10 6 0 10 5 10 10 0 6 -4 10 -10 10 -5 0
-10 -4 -10 -10z"/>
<path d="M2040 902 c0 -12 19 -26 26 -19 2 2 -2 10 -11 17 -9 8 -15 8 -15 2z"/>
<path d="M2045 820 c3 -5 8 -10 11 -10 2 0 4 5 4 10 0 6 -5 10 -11 10 -5 0 -7
-4 -4 -10z"/>
<path d="M2015 780 c-3 -5 1 -10 10 -10 9 0 13 5 10 10 -3 6 -8 10 -10 10 -2
0 -7 -4 -10 -10z"/>
<path d="M2050 740 c-13 -8 -12 -12 5 -29 14 -15 24 -18 35 -11 13 8 12 12 -5
29 -14 15 -24 18 -35 11z"/>
<path d="M2147 742 c-4 -6 -15 -8 -24 -5 -10 4 -14 2 -11 -7 2 -8 8 -15 14
-17 15 -5 37 14 32 28 -3 9 -6 10 -11 1z"/>
<path d="M2105 549 c-12 -18 3 -22 20 -5 14 14 14 16 1 16 -8 0 -18 -5 -21
-11z"/>
<path d="M2198 523 c6 -2 18 -2 25 0 6 3 1 5 -13 5 -14 0 -19 -2 -12 -5z"/>
<path d="M2146 506 c3 -9 11 -16 16 -16 13 0 5 23 -10 28 -7 2 -10 -2 -6 -12z"/>
<path d="M2846 553 c5 -5 12 -12 16 -18 4 -6 8 -2 8 8 0 9 -7 17 -17 17 -9 0
-12 -3 -7 -7z"/>
<path d="M2758 523 c6 -2 18 -2 25 0 6 3 1 5 -13 5 -14 0 -19 -2 -12 -5z"/>
<path d="M2740 409 c0 -5 5 -7 10 -4 6 3 10 8 10 11 0 2 -4 4 -10 4 -5 0 -10
-5 -10 -11z"/>
<path d="M2855 370 c3 -5 8 -10 11 -10 2 0 4 5 4 10 0 6 -5 10 -11 10 -5 0 -7
-4 -4 -10z"/>
<path d="M2140 285 c1 -17 29 -49 37 -41 4 3 -3 16 -15 29 -12 12 -22 17 -22
12z"/>
</g>
</svg>
